<svg xmlns="http://www.w3.org/2000/svg" width="1200" height="486" viewBox="0 0 250 101.42851984567638" class="looka-1j8o68f mx-auto"><defs id="SvgjsDefs1096"><linearGradient id="SvgjsLinearGradient1099"><stop id="SvgjsStop1100" stop-color="#00ddff" offset="0"></stop><stop id="SvgjsStop1101" stop-color="#ff00d4" offset="1"></stop></linearGradient></defs><g id="SvgjsG1097" transform="matrix(2.96167162357414,0,0,2.96167162357414,-2.1325883034442628,-26.108950253352717)" fill="url(#SvgjsLinearGradient1099)"><path d="M12.72712 30.75976 l-0.005742 -0.004961 c0.001992 -0.001602 0.003711 -0.003359 0.005664 -0.005039 c0.000117 0.003359 -0.000078 0.006641 0.000078 0.01 z M9.28508 23.44488 l-0.005 0.004727 c0.00082 -0.001094 0.001641 -0.002227 0.002461 -0.003359 l0.002344 -0.001289 l0 0 c0.000117 -0.000039 0.000156 -0.000039 0.000195 -0.000078 z M8.31456 24.41524 l-0.004883 0.004492 c0.000195 -0.001172 0.000352 -0.002344 0.000547 -0.003516 c0.001484 -0.000234 0.002773 -0.000742 0.004258 -0.000977 l0 0 l0.000078 0 z M9.54352 24.074 c0 0 0.005703 -0.005469 0.005703 -0.00543 c0.000313 0.000625 0.000508 0.001211 0.000742 0.001836 c-0.002148 0.001172 -0.004297 0.002383 -0.006445 0.003594 z M6.9928 27.4018 l-0.004688 -0.005547 c0.003516 -0.001719 0.006758 -0.003711 0.010234 -0.005469 c-0.001914 0.003633 -0.003633 0.007344 -0.005547 0.011016 c0.000039 0.000039 0.000156 0.000078 0.000195 0.000195 z M16.82248 11.97 c0.618712 0.588632 0.735116 1.377892 0.708672 2.189452 c-0.015742 0.481408 -0.163125 0.948476 -0.180078 1.432852 c-0.01043 0.29625 -0.154297 0.563516 -0.255234 0.837304 c-0.4091 1.109452 -0.846524 2.203244 -1.428164 3.241056 c-0.421408 0.751916 -0.82 1.517772 -1.25332 2.263672 c-0.257148 0.442656 -0.523712 0.880664 -0.8041 1.308944 c-0.745508 1.138632 -1.501172 2.270548 -2.25168 3.4059 c-0.097188 0.14707 -0.196524 0.291328 -0.324805 0.414024 c-0.053711 0.051367 -0.108164 0.119609 -0.07625 0.192422 c0.041758 0.095234 0.149883 0.100156 0.230547 0.080352 c0.299648 -0.073516 0.607928 -0.091406 0.90832 -0.150547 c0.580116 -0.114258 1.07836 0.033008 1.587968 0.322617 c0.63746 0.362305 1.24496 0.76922 1.871172 1.147384 c0.213008 0.128633 0.410272 0.274805 0.593788 0.44836 c0.49672 0.469844 0.588008 1.056212 0.525936 1.691056 c-0.123164 1.2591 -0.695312 2.333476 -1.3425 3.393476 c-0.457852 0.75 -0.998868 1.433672 -1.5175 2.13492 c-0.311953 0.421876 -0.71922 0.771916 -1.05258 1.179648 c-0.379961 0.464804 -0.814336 0.880744 -1.253556 1.276288 c-0.672032 0.605196 -1.191092 1.369764 -1.963008 1.866444 c-0.267422 0.4784 -0.876564 0.583164 -1.151408 1.053436 c-0.729492 0.45168 -1.357384 1.079572 -2.23168 1.280468 c-0.200195 0.046016 -0.396484 0.108828 -0.60172 0.07207 c-0.199648 0.030273 -0.380938 -0.009688 -0.555976 -0.100781 c-0.700548 -0.364531 -1.401172 -0.728984 -2.105272 -1.086564 c-0.294688 -0.149648 -0.44664 -0.449492 -0.707852 -0.640584 c-0.194024 -0.141914 -0.127031 -0.349414 0.12293 -0.418868 c0.341641 -0.094961 0.66672 -0.214648 0.968908 -0.401756 c0.332656 -0.205976 0.340859 -0.217656 0.288242 -0.59422 c-0.149883 -1.073476 -0.301133 -2.146796 -0.442852 -3.221368 c-0.034375 -0.260625 -0.019727 -0.527616 -0.052617 -0.788556 c-0.100352 -0.795468 -0.23332 -1.587264 -0.315742 -2.384452 c-0.112774 -1.0909 -0.247617 -2.17918 -0.295742 -3.277852 c-0.036328 -0.82996 -0.197266 -1.653712 -0.258555 -2.483516 c-0.071133 -0.962892 -0.082617 -1.93008 -0.141094 -2.89414 c-0.059141 -0.975976 -0.024766 -1.956248 -0.145781 -2.929376 c-0.037578 -0.302539 -0.012344 -0.612264 -0.01293 -0.914648 c-0.001602 -0.81832 -0.191445 -1.63168 -0.049062 -2.454492 c0.055898 -0.323125 -0.01957 -0.377774 -0.335039 -0.49664 c-0.203438 -0.076641 -0.399297 -0.177539 -0.58992 -0.283125 c-0.170703 -0.09457 -0.230938 -0.253086 -0.20832 -0.447852 c0.024727 -0.212774 0.130625 -0.387461 0.249805 -0.555236 c0.339688 -0.478204 0.526916 -1.00254 0.50082 -1.595352 c-0.009141 -0.207305 0.017695 -0.410428 0.100898 -0.602264 c0.116406 -0.26832 0.234766 -0.324883 0.520196 -0.254961 c0.01418 0.003477 0.028047 0.008477 0.042109 0.0125 c0.652228 0.185078 0.653556 0.186094 1.056992 -0.327812 c0.082969 -0.105664 0.179024 -0.193555 0.290976 -0.264531 c0.188867 -0.119726 0.335586 -0.278359 0.46664 -0.458868 c0.084961 -0.117031 0.183867 -0.236172 0.302969 -0.313711 c0.282734 -0.184024 0.51504 -0.429608 0.779376 -0.627188 c0.700196 -0.523244 1.391524 -1.060156 2.122892 -1.542968 c0.47414 -0.312969 0.925 -0.660468 1.436524 -0.914416 c0.183242 -0.090976 0.360234 -0.198008 0.550156 -0.271641 c0.40836 -0.158242 0.827928 -0.287891 1.234492 -0.450352 c0.73168 -0.292461 1.49582 -0.259062 2.256408 -0.235781 c0.433984 0.013281 0.825584 0.178633 1.167852 0.45422 c1.050352 0.845704 2.043008 1.757304 3.018752 2.685548 z M6.60884 26.43228 c0.045664 0.316914 0.126055 0.633788 0.127031 0.951092 c0.001719 0.598048 0.217852 1.16828 0.140938 1.869064 c0.186211 -0.216914 0.192383 -0.400936 0.331914 -0.524024 c0.365 -0.32207 0.641992 -0.711564 0.765624 -1.197384 c0.031641 -0.124219 0.100586 -0.24418 0.173438 -0.351797 c0.269883 -0.398594 0.560624 -0.783516 0.819844 -1.188752 c0.176328 -0.275625 0.417188 -0.51832 0.486916 -0.855428 c-0.251211 0.168672 -0.43336 0.401876 -0.624024 0.63332 c-0.228086 0.276797 -0.40828 0.610936 -0.788164 0.776288 c0.002852 -0.212852 0.183945 -0.343047 0.183125 -0.530548 c-0.237226 0.142774 -0.405468 0.33918 -0.538556 0.587812 c-0.166367 0.310781 -0.354688 0.61836 -0.688828 0.789024 c0.064375 -0.125703 0.120703 -0.256562 0.196289 -0.375117 c0.54492 -0.85492 1.268908 -1.58414 1.744532 -2.491288 c0.052852 -0.100859 0.12375 -0.208516 0.181602 -0.317188 c0.050469 -0.094766 0.098906 -0.082734 0.150234 0.061875 c0.026562 0.074844 0.060742 0.085547 0.122305 0.076289 c0.169024 -0.02543 0.223672 -0.116172 0.15668 -0.275 c0.056719 -0.031875 0.113438 -0.063711 0.170195 -0.095625 l0.004961 0 c0.028359 -0.018516 0.056602 -0.021641 0.084805 0.000313 l0.004141 0 c0.163984 -0.253164 0.243789 -0.549728 0.435664 -0.793476 c0.081836 -0.104024 0.200703 -0.315664 0.085898 -0.420976 c-0.136602 -0.125312 -0.205 0.150781 -0.347188 0.163242 c-0.062891 0.198867 -0.138281 0.390742 -0.366445 0.572772 c0.011055 -0.225664 0.194258 -0.321524 0.185781 -0.47996 c-0.253984 0.046289 -0.386133 0.242226 -0.525312 0.429608 c-0.057266 0.031406 -0.114453 0.062734 -0.171641 0.094141 c-0.053789 0.164609 -0.105352 0.362461 -0.266914 0.419608 c-0.182148 0.064453 -0.277812 0.175156 -0.368125 0.324141 c-0.020234 0.033398 -0.098359 0.03168 -0.152383 0.044922 c-0.004336 0.029023 -0.00875 0.058125 -0.013164 0.087148 c-0.150781 0.025391 -0.239453 0.130664 -0.34832 0.230625 c-0.295625 0.271484 -0.53 0.598164 -0.894256 0.813516 c-0.328242 0.194024 -0.519884 0.546212 -0.458592 0.971756 z M9.81632 23.0038 c0.055703 -0.027383 0.111367 -0.054805 0.166992 -0.082188 c-0.101953 -0.06082 -0.144258 -0.007969 -0.166992 0.082188 z M9.89224 24.51424 c-0.090547 0.058633 -0.154883 0.134414 -0.163047 0.24707 c0.097109 -0.054375 0.149375 -0.138164 0.163047 -0.24707 z M9.62844 24.8654 c-0.102852 0.05332 -0.152148 0.141055 -0.164024 0.252812 c0.090703 -0.060898 0.150938 -0.141524 0.164024 -0.252812 z M8.6882 25.47448 c-0.005508 -0.022734 -0.011016 -0.045469 -0.016484 -0.068203 c-0.020352 0.014453 -0.049297 0.024688 -0.059024 0.044375 c-0.015703 0.031797 -0.030664 0.07832 0.028945 0.082188 c0.01418 0.000938 0.030938 -0.037812 0.046562 -0.058359 z M8.32872 25.93336 c0.031289 -0.024922 0.066445 -0.065156 0.024844 -0.095312 c-0.039883 -0.028984 -0.072344 0.015547 -0.087852 0.05207 c-0.014531 0.034219 -0.021719 0.071562 -0.031016 0.107969 c0.031719 -0.021055 0.064336 -0.041055 0.094024 -0.064726 z M6.8634 36.912188 c-0.013555 0.170312 -0.06543 0.268086 0.079726 0.299609 c-0.019023 -0.071445 -0.036719 -0.13793 -0.079726 -0.299609 z M7.19588 37.72832 l0.006016 -0.031758 l-0.029492 0.01207 z M7.1928 36.899572 c0.005117 0.031289 -0.011328 0.088516 0.053164 0.073164 c0.00875 -0.002109 0.006797 -0.049024 0.010039 -0.077383 c-0.017617 -0.023516 0.01457 -0.086289 -0.051836 -0.07125 c-0.00957 0.002188 -0.015469 0.05043 -0.011367 0.075469 z M9.05204 36.967188 c0.007188 -0.009258 0.021445 -0.025664 0.02043 -0.026641 c-0.014375 -0.014414 -0.030859 -0.02668 -0.046836 -0.039492 c-0.007227 0.009375 -0.014414 0.01875 -0.021797 0.02832 c0.016094 0.012578 0.032148 0.025195 0.048203 0.037812 z M9.03188 36.131212 c0.025234 0.020664 0.046016 0.062422 0.085976 0.012266 c-0.028633 -0.004102 -0.057344 -0.008164 -0.085976 -0.012266 z M9.45808 36.526916 c0.007812 -0.004688 0.008242 -0.021562 0.011992 -0.032891 c-0.050352 -0.005117 -0.060312 0.036016 -0.080156 0.065938 c0.023164 -0.010312 0.046641 -0.020039 0.068164 -0.033047 z M9.64148 36.200624 c0.116445 -0.009961 0.250312 -0.000664 0.217266 -0.195742 c-0.115664 0.029141 -0.174531 0.103984 -0.217266 0.195742 z M9.80932 35.76864 l0.003984 0.004922 s-0.00375 -0.004883 -0.003984 -0.004922 z M9.8918 35.4204 c0.021992 -0.005312 0.039414 -0.029375 0.058789 -0.045938 c-0.015547 -0.016875 -0.034336 -0.04957 -0.045859 -0.047188 c-0.021445 0.004414 -0.038711 0.029297 -0.057734 0.045664 c0.015234 0.016914 0.034297 0.05 0.044805 0.047461 z M10.10248 35.15584 c0.050664 -0.008672 0.054258 -0.047734 0.054883 -0.087734 c-0.039844 0.004727 -0.078984 0.011602 -0.081758 0.063672 c-0.00043 0.007969 0.019062 0.025391 0.026875 0.024062 z M10.41724 35.50208 c0.007812 -0.000508 0.014727 -0.014961 0.02207 -0.02293 c-0.005117 -0.009375 -0.008477 -0.024297 -0.015859 -0.02668 c-0.008867 -0.002891 -0.026133 0.001563 -0.031055 0.008789 c-0.017812 0.026172 -0.007734 0.042812 0.024844 0.04082 z M10.69692 35.05452 c0.111953 -0.011406 0.197422 -0.064453 0.254492 -0.162344 c-0.114648 0.006875 -0.189414 0.07707 -0.254492 0.162344 z M10.78748 34.21052 c0.002344 0.009102 0.010117 0.016836 0.015547 0.025195 c-0.005859 -0.014375 -0.01168 -0.028711 -0.017539 -0.043086 c0.000078 0.006094 0.000469 0.012109 0.001992 0.017891 z M13.38576 29.48132 c-0.160508 0.136289 -0.060586 0.266797 -0.047344 0.388086 c0.064141 -0.113086 0.138359 -0.22582 0.047344 -0.388086 z M12.52392 29.65052 c-0.758516 0.40754 -1.641916 0.530236 -2.355744 1.0375 c-0.023633 0.016719 -0.051055 0.030742 -0.078789 0.038633 c-0.48586 0.138242 -0.898712 0.407344 -1.312928 0.687968 c-0.28875 0.195547 -0.63422 0.324219 -0.98164 0.351406 c-0.234531 0.01832 -0.328633 -0.260898 -0.48758 -0.405272 c-0.101055 -0.091758 -0.191406 -0.055586 -0.225156 0.07793 c-0.017617 0.069648 -0.029141 0.144609 -0.02375 0.215742 c0.035195 0.46578 0.052422 0.934532 0.120234 1.395744 c0.091524 0.622304 -0.020039 1.257852 0.141133 1.87336 c0.007148 0.027188 0.001953 0.058789 -0.002266 0.087578 c-0.083203 0.57082 -0.01793 1.133008 0.099648 1.691756 c0.039102 0.18582 0.08707 0.37 0.023984 0.559688 c-0.050976 0.023906 -0.105234 0.042812 -0.151914 0.073359 c-0.035156 0.022969 -0.063555 0.071797 -0.02375 0.104062 c0.038945 0.031641 0.075117 -0.014688 0.107305 -0.039922 c0.022344 -0.0175 0.04418 -0.035625 0.066211 -0.053516 c0.199609 0.16832 0.33293 0.008125 0.440272 -0.114844 c0.295664 -0.338555 0.666836 -0.606992 0.915196 -0.98836 c0.051367 -0.078867 0.123516 -0.117305 0.216055 -0.121524 c0.077148 -0.146406 0.360859 -0.172812 0.250742 -0.431172 c-0.005703 -0.013359 0.027305 -0.051094 0.049688 -0.067344 c0.252891 -0.183516 0.406876 -0.446288 0.578712 -0.697772 c0.080391 -0.117695 0.208516 -0.194609 0.362461 -0.202031 c-0.030664 0.081641 -0.033164 0.163086 0.000703 0.244453 c0.259024 -0.206524 0.356797 -0.521408 0.527968 -0.786564 c-0.000312 -0.00082 -0.000664 -0.001602 -0.001016 -0.002422 c0.001016 -0.000195 0.001953 -0.000547 0.002969 -0.000742 l0.002461 -0.003984 c0.000039 0.001094 0.000039 0.002227 0.000039 0.003359 c0.304609 -0.059648 0.375156 -0.391524 0.61164 -0.52992 c0.10207 -0.128125 0.181133 -0.279531 0.345742 -0.343242 l0.08168 -0.261562 c0.02625 0.107226 0.071719 0.215274 0.067226 0.321172 c-0.004805 0.112695 -0.070664 0.157344 -0.144922 0.034336 c-0.093906 0.379219 -0.271328 0.714532 -0.534256 1.003592 c-0.125664 0.138125 -0.222422 0.28957 -0.249648 0.4775 c0.073867 -0.065352 0.156484 -0.123633 0.217852 -0.19918 c0.560312 -0.690116 1.115936 -1.384064 1.57996 -2.145116 c0.220117 -0.361016 0.481172 -0.708908 0.602108 -1.112968 c0.142226 -0.475196 0.313867 -0.937928 0.485272 -1.401564 c0.046055 -0.12457 0.091172 -0.246641 0.095625 -0.378633 c0.002305 -0.067226 0.024922 -0.157031 -0.070117 -0.18418 c-0.102266 -0.029219 -0.166172 0.033203 -0.203828 0.119219 c-0.034922 0.079844 -0.055664 0.165781 -0.089492 0.246172 c-0.128672 0.305469 -0.260117 0.609764 -0.409416 0.958752 c-0.070234 -0.310938 -0.02457 -0.53758 0.154883 -0.731016 l0 -0.092617 c0.004414 -0.024805 0.006953 -0.049805 0.007656 -0.075195 c-0.226562 -0.005664 -0.26375 0.186016 -0.339766 0.334883 c-0.090195 0.17668 -0.101328 0.393398 -0.266758 0.531992 c-0.009375 -0.316562 0.166094 -0.581056 0.248359 -0.871796 l-0.005625 0.005117 l0.000117 -0.000117 c-0.047578 -0.000156 -0.00207 0.006016 0.002148 -0.019648 c0.001094 0.004609 0.002109 0.009141 0.003125 0.013672 c0.056289 -0.065234 0.136953 -0.133633 0.11125 -0.218789 c-0.045508 -0.150976 -0.171016 -0.05543 -0.261758 -0.051367 c-0.10125 0.004531 -0.216328 -0.00168 -0.300312 0.043438 z M11.40536 33.6714 c0.000586 0.002461 0.000898 0.005 0.00168 0.007305 c0.002891 0.008398 0.008945 0.015664 0.013633 0.023438 c-0.005078 -0.010234 -0.010195 -0.020508 -0.015312 -0.030742 z M11.74772 33.31088 c0.000117 0.021211 0.000234 0.042305 0.000391 0.063438 c0.005039 -0.014023 0.010117 -0.028086 0.012031 -0.042539 c0.00082 -0.006289 -0.006328 -0.013672 -0.012422 -0.020898 z M10.59304 23.4686 c-0.023516 0.045859 -0.047031 0.091719 -0.070352 0.137734 c0.036328 -0.039492 0.06332 -0.083633 0.070352 -0.137734 z M10.58896 22.41256 c-0.032812 0.019297 -0.093203 0.023398 -0.041836 0.089297 z M11.86964 27.51036 c-0.346914 -0.085742 -0.663908 0.048359 -0.998556 0.026016 c-0.118555 -0.00793 -0.239024 0.095781 -0.240391 0.310664 c0.426952 -0.116016 0.832968 -0.226367 1.238944 -0.33668 z M10.75048 22.12712 l0.026836 -0.011523 l-0.021211 -0.017461 z M10.86056 23.097 l0.004531 0.004414 s-0.004492 -0.004453 -0.004531 -0.004414 z M11.03744 22.82352 c0 0 0.002344 0.005508 0.002891 0.005664 z M13.9216 12.49688 c0.110234 -0.207578 -0.038281 -0.347031 -0.297109 -0.32543 c-0.145 0.01207 -0.287617 0.05043 -0.431836 0.073672 c-0.429844 0.069258 -0.768908 0.350586 -1.166484 0.496952 c-0.754024 0.277539 -1.453868 0.667344 -2.139336 1.080508 c-0.261914 0.157852 -0.480392 0.391211 -0.748204 0.535156 c-0.484064 0.260156 -0.866952 0.65246 -1.26668 1.002616 c-0.480272 0.420744 -1.004416 0.789336 -1.462852 1.237928 c-0.345156 0.337734 -0.639376 0.644064 -0.557772 1.194764 c0.123555 0.833984 0.094726 1.68246 0.217226 2.522148 c0.126367 0.865976 0.143711 1.74758 0.206992 2.622072 c0.060117 0.83086 0.149297 1.657656 0.226524 2.558556 c0.564492 -0.556564 0.939024 -1.175352 1.315508 -1.770664 c0.516564 -0.816796 1.101524 -1.583712 1.621056 -2.395744 c0.377734 -0.590392 0.729064 -1.197736 1.110352 -1.785664 c0.343047 -0.528944 0.615196 -1.101408 0.955548 -1.625584 c0.481016 -0.74078 0.805624 -1.5541 1.228672 -2.319064 c0.192656 -0.348476 0.289453 -0.736172 0.472852 -1.0784 c0.343672 -0.641444 0.375391 -1.38328 0.715548 -2.023828 z M11.82172 33.0306 l0.005352 0.004648 c-0.000742 0.0025 -0.001523 0.004961 -0.002305 0.007461 c-0.000977 -0.004023 -0.002109 -0.008086 -0.003047 -0.012109 z M10.26416 34.46796 c0.04625 0.042344 0.002617 0.093633 -0.008203 0.141758 c-0.046641 -0.021055 -0.107305 -0.035781 -0.087109 -0.105391 c0.01168 -0.040274 0.062344 -0.066484 0.095312 -0.036367 z M10.25588 34.60976 c0.001289 0.000547 0.002539 0.001055 0.00375 0.001641 l-0.00543 0.005234 c0.000352 -0.002266 0.001172 -0.00457 0.00168 -0.006875 z M12.36312 32.32356 c-0.000234 0.003242 -0.00043 0.006445 -0.00082 0.00957 l-0.00625 -0.005273 c0.002266 -0.001523 0.004727 -0.002891 0.00707 -0.004297 z M12.4914 32.1854 c-0.021992 0.032227 -0.041172 0.066992 -0.067148 0.095742 c-0.016133 0.01793 -0.039805 0.029141 -0.061211 0.042344 c0.00207 -0.024727 0.001367 -0.050586 0.010703 -0.072188 c0.015312 -0.035508 0.038867 -0.067812 0.062891 -0.098359 c0.001719 -0.002148 0.035742 0.021055 0.054766 0.032461 z M12.97728 31.10852 l0.005859 0.00582 c-0.00375 0.003477 -0.007812 0.006719 -0.01207 0.009805 c0.001914 -0.005391 0.003906 -0.010586 0.006211 -0.015625 z M12.97104 31.12412 c-0.024844 0.069961 -0.020508 0.163008 -0.135781 0.164922 c-0.019297 -0.111484 0.077226 -0.122305 0.135781 -0.164922 z M13.0338 31.05084 c-0.011211 0.013633 -0.023867 0.026094 -0.036719 0.038398 c0.012852 -0.02332 0.025742 -0.04668 0.038594 -0.07 c-0.000352 0.010742 0.003555 0.025 -0.001875 0.031602 z M12.97728 31.1084 c0.006484 -0.006484 0.013164 -0.012773 0.019805 -0.01918 c-0.004648 0.008398 -0.009258 0.016758 -0.013906 0.025156 c0 0 -0.005859 -0.00582 -0.005898 -0.005977 z M10.695 34.00756 l-0.004336 -0.004609 c0.003477 -0.005469 0.007031 -0.010898 0.010586 -0.016328 c-0.00207 0.006953 -0.004141 0.013945 -0.00625 0.020938 l0 0 z M10.72696 33.90044 c0.0025 0.011016 0.01043 0.024648 0.006602 0.0325 c-0.009062 0.018711 -0.020703 0.036172 -0.032227 0.053711 c0.008555 -0.028711 0.01707 -0.057461 0.025625 -0.086211 z M12.36248 32.33316 c-0.001562 0.003945 -0.005156 0.007305 -0.00957 0.010273 c0.001094 -0.005195 0.002188 -0.01043 0.003281 -0.015664 c0 0 0.00625 0.005273 0.006289 0.005391 z M12.34084 32.40236 c-0.048984 -0.036211 -0.008555 -0.044453 0.012109 -0.058828 c-0.004023 0.019609 -0.008086 0.039219 -0.012109 0.058828 z M12.11668 33.03044 c-0.001719 0.006797 -0.003437 0.013555 -0.005156 0.020312 l-0.00543 -0.005898 c0.003359 -0.004844 0.007109 -0.00957 0.010586 -0.014414 z M12.1264 32.9926 c-0.000312 0.008125 0.001523 0.017266 -0.001523 0.024141 c-0.002109 0.004844 -0.005039 0.009336 -0.008203 0.013672 c0.003242 -0.012617 0.006484 -0.025195 0.009727 -0.037812 z M12.10608 33.04488 c0 0 0.005352 0.005938 0.005117 0.005703 l-0.013594 -0.001289 c0.002852 -0.001523 0.005625 -0.002734 0.008477 -0.004414 z M12.0976 33.04928 c-0.054844 0.029609 -0.106875 0.030859 -0.154609 -0.014805 c0.051484 0.004883 0.102969 0.009766 0.154609 0.014805 z M12.72132 30.75488 c0 0 0.005703 0.005 0.005508 0.004844 c-0.001992 -0.00168 -0.00375 -0.003281 -0.005508 -0.004844 z M12.96672 29.84016 c0.005078 0.009766 0.006289 0.017383 0.005273 0.023242 c-0.001758 -0.007734 -0.003516 -0.015508 -0.005273 -0.023242 z M11.93076 33.03336 l-0.000312 0.000313 c-0.034609 0.000742 -0.068945 0.001172 -0.10332 0.001563 c0 0 -0.005391 -0.004648 -0.005156 -0.004453 c0.038477 -0.000625 0.076719 -0.001406 0.114648 -0.001992 c0.002109 0.002188 0.004258 0.00375 0.006367 0.005742 c-0.004062 -0.000391 -0.008164 -0.000781 -0.012227 -0.001172 z M10.25984 34.72284 c0 0 -0.000195 -0.000273 -0.000234 -0.000352 c-0.002461 0.000117 -0.004805 0.000625 -0.007266 0.000703 c0.000742 -0.001914 0.001289 -0.003867 0.002031 -0.005781 l-0.000195 -0.000195 c-0.000156 -0.033672 -0.000039 -0.067148 0.000039 -0.100625 c0 0 0.005391 -0.005195 0.005234 -0.005 c0.000117 0.037305 0.000352 0.074375 0.000391 0.11125 z M7.21036 28.0116 c-0.053672 0.15582 -0.092226 0.259922 -0.246406 0.307305 c-0.017344 -0.17707 0.043086 -0.263594 0.246406 -0.307305 z M7.70148 27.27988 c-0.011875 0.011133 -0.06332 0.004844 -0.071406 -0.008516 c-0.071445 -0.118086 -0.020508 -0.211328 0.066602 -0.29457 c0.028125 0.101016 0.11293 0.201484 0.004805 0.303086 z M7.69432 26.96832 l0.005391 0.005547 c-0.001016 0.000938 -0.001953 0.001914 -0.002969 0.002891 c-0.000781 -0.002773 -0.001719 -0.005625 -0.002422 -0.008398 l0 -0.000039 z M7.97216 26.7902 c-0.010547 0.004531 -0.021055 0.009062 -0.031602 0.013516 c-0.003281 -0.010547 -0.012539 -0.027305 -0.008984 -0.030742 c0.026797 -0.025781 0.041406 -0.018906 0.040586 0.017227 z M9.54348 24.07396 c-0.001758 -0.005273 -0.003398 -0.010547 -0.005078 -0.015859 c0.003867 0.00332 0.007539 0.006758 0.010781 0.010469 c0 0 -0.005703 0.005508 -0.005703 0.005391 z M9.48508 23.97372 c0.010273 0.005781 0.025859 0.009102 0.029766 0.017695 c0.009688 0.021406 0.016484 0.044102 0.023555 0.06668 c-0.026289 -0.022383 -0.063047 -0.037695 -0.05332 -0.084375 z M22.154572 17.9628 l0.004414 0.004805 l-0.006562 -0.000703 c0.000703 -0.001367 0.001406 -0.002695 0.002109 -0.004062 l0 0 c0.000039 0 0.000039 -0.000039 0.000039 -0.000039 z M33.50716 36.646444 c0.551408 0.107226 0.65414 0.426876 0.295156 0.873828 c-0.132422 0.164805 -0.315274 0.258047 -0.478868 0.380156 c-0.638672 0.476876 -1.357696 0.789024 -2.084764 1.1066 c-1.128984 0.493124 -2.32164 0.70586 -3.516328 0.901408 c-0.791992 0.129648 -1.596248 0.126406 -2.401368 -0.04332 c-0.98742 -0.208164 -1.988124 -0.356836 -2.986524 -0.50836 c-0.568592 -0.086289 -1.06578 -0.28957 -1.490156 -0.684416 c-0.175859 -0.163633 -0.322422 -0.332734 -0.407228 -0.560156 c-0.055781 -0.149609 -0.136953 -0.290508 -0.214726 -0.4309 c-0.094492 -0.170586 -0.145938 -0.352891 -0.148672 -0.545156 c-0.008203 -0.583556 -0.042774 -1.164884 -0.104922 -1.745352 c-0.116602 -1.088944 -0.184297 -2.178828 -0.048867 -3.272616 c0.026797 -0.216133 0.026367 -0.438516 0.011953 -0.656248 c-0.037656 -0.56832 0.086562 -1.12664 0.063203 -1.699804 c-0.027227 -0.66754 0.090156 -1.340976 0.145274 -2.011836 c0.007188 -0.087383 0.038398 -0.178789 0.022109 -0.261172 c-0.117266 -0.59418 0.051562 -1.163048 0.132969 -1.741444 c0.111953 -0.795704 0.243984 -1.587656 0.29375 -2.393752 c0.026797 -0.43418 0.145781 -0.881484 0.420116 -1.254376 c-0.056602 -0.020352 -0.104531 -0.060976 -0.072344 -0.11875 c0.134024 -0.240547 0.123711 -0.509764 0.167695 -0.768124 l-0.005781 0.005469 c0.138828 -0.387305 0.189492 -0.792892 0.241758 -1.197264 c0.035039 -0.270938 0.000625 -0.567968 0.381562 -0.639492 c0.100039 -0.018789 0.09457 -0.147383 0.068867 -0.228281 c-0.041992 -0.132148 -0.063203 -0.004531 -0.08582 0.017188 c-0.052266 0.050117 -0.124766 0.060234 -0.126133 -0.01375 c-0.002891 -0.158359 0.020273 -0.318711 0.048086 -0.475508 c0.016445 -0.092383 0.049609 -0.055117 0.104414 -0.006523 c0.117148 0.103945 0.151094 -0.072148 0.237148 -0.088984 c-0.005273 -0.01125 -0.010273 -0.022656 -0.01625 -0.033477 c-0.073711 -0.133359 -0.136289 -0.274883 -0.278789 -0.356055 c-0.010742 -0.006094 -0.005625 -0.057344 0.005312 -0.081641 c0.090039 -0.199805 0.183203 -0.398203 0.287774 -0.623592 c0.159375 0.159531 0.073086 0.326641 0.107305 0.46754 c0.026211 0.002891 0.052422 0.005742 0.078633 0.008594 c-0.018398 0.037109 -0.0375 0.073789 -0.054648 0.111445 c-0.035508 0.07793 -0.176016 0.170195 -0.009102 0.232734 c0.1125 0.042148 0.185039 -0.069375 0.211484 -0.167656 c0.063125 -0.234453 0.106055 -0.473164 0.046758 -0.71672 c0.091406 -0.060508 0.123867 -0.160625 0.167344 -0.253359 l-0.005312 0.002891 c-0.000117 -0.032891 -0.000156 -0.065781 -0.000195 -0.098672 l0.00543 0.002734 c0.004609 -0.028555 0.004961 -0.057188 0.001055 -0.08582 l-0.004297 0.003906 c0.009961 -0.010742 0.02 -0.021406 0.029883 -0.032227 c0.080781 -0.088281 0.061797 -0.312344 0.229961 -0.261836 c0.18582 0.055781 0.147695 0.243828 0.13 0.412188 c-0.056367 0.536248 -0.094414 1.074532 -0.107969 1.616172 c0.137656 -0.375469 0.153203 -0.77328 0.240195 -1.156016 c0.013984 -0.061406 -0.111484 -0.379414 0.205156 -0.207617 c0.047539 0.02582 0.054609 -0.116367 0.074883 -0.181875 c0.14793 -0.477812 0.169883 -0.97918 0.269648 -1.466328 c0.046992 -0.229336 0.107774 -0.446756 0.259141 -0.65078 c0.216758 0.281836 0.102305 0.622072 0.184922 0.960392 c0.388359 -0.646836 0.411368 -1.37996 0.804256 -2.03492 c0.023359 0.180312 0.040312 0.311328 0.057226 0.441408 c0.131172 -0.041953 0.199062 -0.162969 0.300742 -0.241289 c0.180664 -0.139141 0.329766 -0.080234 0.382109 0.14418 c0.023945 0.102617 0.004922 0.2025 -0.016875 0.303945 c-0.175664 0.8166 -0.232539 1.64746 -0.308594 2.477072 c-0.047774 0.52086 -0.046484 1.050272 -0.205625 1.558712 c-0.043164 0.137852 -0.066289 0.288281 -0.065078 0.432696 c0.009492 1.113556 -0.130469 2.219804 -0.18582 3.329688 c-0.044297 0.888204 -0.067266 1.7825 -0.121172 2.671408 c-0.048203 0.794844 -0.150781 1.599296 -0.080469 2.403164 c0.025625 0.292695 -0.012617 0.581056 -0.063086 0.87258 c-0.097695 0.56422 -0.071797 1.137968 -0.072226 1.708712 c-0.000117 0.131445 0.031797 0.267266 0.008672 0.39375 c-0.135039 0.738672 -0.054922 1.485196 -0.071172 2.226248 c-0.019805 0.903712 -0.047617 1.81078 0.042969 2.716564 c0.052226 0.522384 0.001484 1.053908 0.114062 1.573712 c0.083516 0.385508 0.161719 0.772228 0.245039 1.157772 c0.029141 0.134922 0.119492 0.195312 0.256328 0.184609 c0.116602 -0.009102 0.24043 0.002031 0.348281 -0.033984 c0.688868 -0.230234 1.41418 -0.293008 2.114572 -0.47336 c0.844764 -0.217539 1.618868 -0.571212 2.334764 -1.06254 c0.127422 -0.087422 0.236445 -0.222656 0.422264 -0.178281 c0.034336 0.172969 -0.131172 0.220508 -0.191836 0.349102 c0.116406 0.040195 0.212812 -0.024727 0.269766 -0.084219 c0.300391 -0.313711 0.732032 -0.193008 1.07914 -0.343633 c0.357539 0.18875 0.671796 -0.191328 1.045664 -0.06332 c0.328125 0.112344 0.691212 0.11918 1.036212 0.18625 z M21.751564 26.60084 c0.003477 -0.010703 0.0125 -0.023477 0.009453 -0.03168 c-0.006953 -0.018594 -0.01625 -0.036289 -0.025625 -0.053945 c0.005391 0.028555 0.010781 0.05707 0.016172 0.085625 z M21.695508 26.47056 c-0.007344 -0.004023 -0.017578 -0.002891 -0.026484 -0.004023 c0.013203 0.004531 0.026406 0.009141 0.039609 0.01375 c-0.004141 -0.003633 -0.008398 -0.007148 -0.013125 -0.009727 z M21.55836 26.66436 c-0.007891 0.004414 -0.010469 0.018242 -0.015352 0.028008 c0.024336 0.021992 0.039492 0.016172 0.041758 -0.017773 c0.000234 -0.003242 -0.020898 -0.013359 -0.026406 -0.010234 z M21.461056 27.26964 l-0.030195 -0.014336 l0.000078 0.036133 z M21.411876 31.08744 c-0.007461 0.010742 -0.020625 0.021289 -0.020977 0.032227 c-0.000312 0.010625 0.012539 0.021641 0.01957 0.0325 c0.007578 -0.010703 0.020781 -0.02125 0.021094 -0.032148 c0.000273 -0.010664 -0.012617 -0.021719 -0.019688 -0.032578 z M21.689064 35.0374 c0.165976 -0.47168 0.205781 -2.143204 0.126758 -4.56224 c-0.049414 0.051953 -0.073242 0.11332 -0.080391 0.186758 c-0.052226 0.537928 -0.119688 1.074572 -0.118594 1.616524 c0.000195 0.087266 -0.001562 0.175703 -0.015625 0.261406 c-0.0125 0.076016 -0.05793 0.143281 -0.147539 0.111836 c-0.066133 -0.023203 -0.073711 -0.109453 -0.043633 -0.150586 c0.190859 -0.26082 0.062188 -0.50492 -0.018516 -0.753828 c-0.108594 0.554844 -0.096797 1.112852 -0.073789 1.671836 c0.030273 -0.142578 0.040156 -0.286836 0.059531 -0.429844 c0.008398 -0.062188 0.052266 -0.106445 0.121719 -0.086289 c0.047148 0.013672 0.066797 0.062617 0.055156 0.106602 c-0.061484 0.232305 -0.011406 0.466796 -0.006016 0.698244 c0.009922 0.428124 0.021211 0.859804 0.140938 1.329572 z M21.817108 30.45584 c0.043984 -0.172383 0.064297 -0.345156 0.021367 -0.565312 c-0.144805 0.222461 -0.093828 0.394648 -0.021367 0.565312 z M21.842072 29.66424 c0.006797 -0.010547 0.013633 -0.021094 0.020508 -0.031641 c0.002656 -0.032852 -0.012344 -0.050859 -0.044024 -0.046406 c-0.00875 0.001211 -0.023594 0.024727 -0.021211 0.028281 c0.012305 0.01832 0.029336 0.033477 0.044726 0.049766 z M21.848632 29.21188 c-0.004062 0.007891 0.005039 0.022422 0.008125 0.033906 c0.008789 -0.029414 0.017578 -0.058789 0.026367 -0.088203 c-0.012305 0.017656 -0.024766 0.035273 -0.034492 0.054297 z M21.871016 22.15988 c0.009531 -0.022578 0.019805 -0.044961 0.027188 -0.068242 c0.000547 -0.001602 -0.02 -0.009922 -0.030859 -0.015195 c-0.008672 0.022422 -0.01832 0.044609 -0.02457 0.067695 c-0.000703 0.0025 0.018359 0.010352 0.028242 0.015742 z M21.940312 21.2746 l0.008438 -0.029844 l-0.020039 0.005312 z M21.972696 20.7506 c0.07875 -0.185938 0.172148 -0.370156 0.031133 -0.55578 c-0.01043 0.185234 -0.020781 0.370508 -0.031133 0.55578 z M22.081408 19.90312 c0.006055 0.004023 0.021055 -0.00543 0.03207 -0.008906 c-0.003906 -0.011445 -0.004688 -0.027773 -0.012617 -0.032773 c-0.006406 -0.004023 -0.021406 0.005625 -0.032617 0.00918 c0.004062 0.011328 0.005156 0.027188 0.013164 0.0325 z M22.180392 18.97776 c0.026875 -0.056992 0.069062 -0.12625 -0.026797 -0.172695 c-0.048828 0.080274 -0.11125 0.150976 -0.113516 0.248594 c0.075586 0.017461 0.116406 -0.025234 0.140312 -0.075898 z M22.239884 18.58528 c0.012617 -0.015352 0.010898 -0.066914 -0.001094 -0.074336 c-0.095859 -0.059297 -0.147734 0.054219 -0.227852 0.064258 c-0.010703 0.001328 -0.020859 0.006562 -0.031133 0.011367 c0.086797 0.057852 0.175078 0.101953 0.260078 -0.001289 z M22.499532 32.82548 c0.189688 -0.338867 0.20125 -0.654532 0.149726 -0.961796 c-0.103398 -0.61664 -0.129609 -1.2375 -0.152891 -1.859416 c-0.004297 -0.114883 -0.016953 -0.224297 -0.070352 -0.326133 c0.006211 0.213789 -0.013828 0.424532 -0.044883 0.636952 c-0.039766 0.272031 -0.121602 0.554064 -0.044688 0.822188 c0.111211 0.387656 0.097617 0.776408 0.097969 1.16918 c0.000156 0.152774 -0.016562 0.313047 0.065117 0.519024 z M22.73914 19.45572 c0 -0.08168 -0.000039 -0.163359 -0.000039 -0.245039 c-0.026836 0.040625 -0.035547 0.081641 -0.035 0.1225 c0.000547 0.041172 0.010234 0.082188 0.015898 0.123242 c0.006367 -0.000234 0.012773 -0.000469 0.019141 -0.000703 z M23.19948 31.00976 c0.006602 -0.037109 -0.00668 -0.055234 -0.035469 -0.053711 c-0.006289 0.025898 -0.01418 0.051562 -0.018633 0.077812 c-0.006367 0.037383 0.01332 0.065039 0.031328 0.051094 c0.016953 -0.013086 0.018086 -0.048828 0.022773 -0.075195 z M21.638008 14.87304 l-0.005117 0.004844 c0.000977 -0.002148 0.001797 -0.004258 0.002773 -0.006367 c0.00082 0.000508 0.001445 0.001016 0.002344 0.001523 z M21.635664 14.8716 c-0.262891 -0.146524 -0.159141 -0.355938 -0.04832 -0.51582 c0.100274 -0.144609 0.092695 -0.268789 0.104375 -0.430468 c0.028008 -0.387891 0.163047 -0.7641 0.314062 -1.125624 c0.048008 -0.114883 0.140547 -0.223008 0.367734 -0.223203 c-0.164766 0.390664 -0.076484 0.821916 -0.329453 1.159884 c-0.088672 0.118476 -0.090078 0.238789 -0.128789 0.358828 c-0.06207 0.192226 -0.082226 0.405584 -0.280078 0.52496 l-0.005664 -0.005781 c0.069726 0.084883 0.045703 0.170938 0.006133 0.257226 z M22.30664 14.934 c0.011602 -0.087812 0.047188 -0.161836 0.122266 -0.212344 c0.02 0.649376 -0.164961 1.269532 -0.218438 1.932616 c-0.163633 -0.090976 -0.101289 -0.186562 -0.092617 -0.259648 c0.057774 -0.48746 0.124648 -0.973868 0.188789 -1.460624 z M22.431796 14.71524 c-0.001562 -0.001016 -0.003125 -0.002109 -0.003164 -0.002109 c0.001016 -0.001953 0.001953 -0.003906 0.002969 -0.005859 c0.001094 0.003359 0.002305 0.006797 0.003281 0.010156 c-0.002109 0.001328 -0.003906 0.00293 -0.005977 0.004297 c-0.000117 -0.002852 -0.000078 -0.005703 -0.000156 -0.008555 z M22.431564 14.70728 c-0.035742 -0.11082 -0.125742 -0.220078 -0.009141 -0.378203 c0.101094 0.149609 0.068594 0.26375 0.009141 0.378203 z M21.20086 16.26168 c0.096406 0.148359 -0.011211 0.207578 -0.103125 0.272539 c0.021523 -0.091758 0.021719 -0.191484 0.103125 -0.272539 z M21.993984 16.9034 c-0.001875 -0.000039 -0.003789 0.000039 -0.005664 -0.000156 l0.005195 -0.005898 c0.000234 0.001992 0.000273 0.004062 0.000469 0.006055 z M22.109064 17.10452 c-0.064648 0.03457 -0.085195 -0.037812 -0.100586 -0.085469 c-0.011797 -0.036328 -0.01082 -0.076758 -0.014492 -0.115664 c0.051562 0.001992 0.117188 -0.014961 0.133047 0.0525 c0.01125 0.047812 0.008281 0.134609 -0.017969 0.148633 z M21.356524 15.605 c-0.011406 -0.00043 -0.032188 -0.01293 -0.031797 -0.018828 c0.001523 -0.024102 0.009609 -0.047774 0.015391 -0.07168 c0.02 0.013047 0.049961 0.021953 0.057539 0.040195 c0.012422 0.029805 -0.008242 0.051602 -0.041133 0.050312 z M22.87758 15.91544 c-0.049219 -0.043398 -0.019727 -0.096602 -0.011758 -0.147266 c0.050781 0.021133 0.104024 0.04332 0.073242 0.11418 c-0.007695 0.017695 -0.054883 0.038906 -0.061484 0.033086 z M22.866916 15.76176 c-0.000234 0.002148 -0.000742 0.004336 -0.001094 0.006445 l-0.003867 -0.001641 l-0.000039 0 z M21.102188 16.77896 c-0.077344 -0.102422 -0.035352 -0.161016 -0.011797 -0.219531 c0.003281 0.060859 0.006719 0.124648 0.011797 0.219531 z M21.095236 16.54556 c0.000039 0.000039 0.000273 0.000234 0.000234 0.000234 c-0.001523 0.004531 -0.003281 0.009062 -0.005078 0.013594 c-0.000352 -0.006406 -0.000703 -0.012852 -0.001055 -0.019258 c0.002773 -0.001992 0.005625 -0.003945 0.008477 -0.005938 c-0.000898 0.00375 -0.001602 0.007617 -0.002578 0.011367 z M22.80172 16.204 l0.000313 0.031406 l-0.02668 -0.013008 z M22.86492 16.44112 c-0.005078 0.010352 -0.007891 0.02625 -0.01582 0.029531 c-0.007148 0.002891 -0.019961 -0.008203 -0.030234 -0.013086 c0.005117 -0.010352 0.010234 -0.020781 0.015352 -0.031133 c0.010234 0.004883 0.020469 0.009805 0.030703 0.014688 z M21.417264 17.57228 l-0.019219 -0.003984 l0.013047 -0.024023 z M21.44996 15.3236 c-0.006992 -0.011523 -0.014023 -0.023047 -0.021016 -0.034648 c0.008477 0.010156 0.016992 0.020312 0.025469 0.030469 l0 0 l0 0.000039 z M21.604844 15.02696 c0.002891 -0.007812 0.003867 -0.017188 0.008945 -0.023047 c0.003047 -0.003437 0.006719 -0.006289 0.010469 -0.009062 c-0.006484 0.010703 -0.01293 0.021406 -0.019414 0.032109 z M23.895 14.73892 c0.004336 -0.005469 0.010234 -0.009727 0.016445 -0.013789 c-0.007578 0.013984 -0.015195 0.027969 -0.022812 0.041953 c0.001914 -0.00957 0.000977 -0.021367 0.006367 -0.028164 z M23.91892 14.71148 c0 0 0.005625 0.004648 0.005742 0.004805 c-0.004219 0.003125 -0.00875 0.005898 -0.013203 0.008789 c0.0025 -0.004531 0.004961 -0.009062 0.007461 -0.013594 z M23.91808 14.62324 l0.00582 -0.005938 c0.000313 0.033047 0.000586 0.066094 0.000781 0.098984 c-0.000156 -0.000156 -0.005781 -0.004844 -0.005938 -0.005 c-0.000312 -0.029414 -0.000508 -0.05875 -0.000664 -0.088047 z M21.634416 14.97812 c-0.000039 -0.000039 -0.000273 -0.000234 -0.000312 -0.000234 c-0.000586 -0.033438 -0.000937 -0.066641 -0.001289 -0.099844 c0 0 0.005195 -0.004883 0.005039 -0.004688 c0.000586 0.036914 0.001289 0.073633 0.001836 0.110156 c-0.005 0.003945 -0.010312 0.007578 -0.01543 0.011406 c0.003438 -0.005625 0.006797 -0.011211 0.010156 -0.016797 z M21.88918 16.90448 c-0.000195 -0.000156 -0.004922 -0.005859 -0.004922 -0.005859 s0.005078 0.006016 0.004922 0.005859 z M21.88918 16.90448 c0.000156 0.000156 -0.004961 -0.005859 -0.004805 -0.005703 c0.036484 -0.000352 0.072774 -0.000781 0.109102 -0.001289 c0 0 -0.005117 0.005898 -0.005312 0.006094 c-0.033164 0.000352 -0.066172 0.000547 -0.098984 0.000898 z M21.27832 18.04608 l0.005508 0.005664 c-0.000039 0.000039 -0.005508 -0.005664 -0.005508 -0.005664 z M22.24332 17.42712 c0.034414 -0.000742 0.068906 -0.001523 0.103047 -0.002031 c0.000156 0.00043 0.000195 0.000938 0.000273 0.001445 c-0.001992 0.001328 -0.003672 0.00293 -0.005742 0.004219 l-0.000234 0.000234 c-0.031602 0.000508 -0.063008 0.00082 -0.094414 0.001055 l0 0 l-0.000078 0 z M42.70808 22.61988 l0.005547 0.005508 c-0.001953 -0.00168 -0.003945 -0.003359 -0.005898 -0.005039 l0.000352 -0.000469 l0 0 z M45.53084 18.83012 l-0.007031 0.00707 c-0.001367 -0.002461 -0.002344 -0.004805 -0.003672 -0.007188 c0.003672 0.000195 0.006953 -0.000156 0.010703 0.000117 z M50.48256 17.36376 c-0.03 0.272461 0.048047 0.555272 0.037891 0.831796 c-0.033594 0.905508 -0.068945 1.811408 -0.195078 2.710704 c-0.030469 0.217148 -0.0525 0.436756 -0.058789 0.65582 c-0.022891 0.79578 -0.29168 1.552304 -0.366133 2.339804 c-0.023359 0.246836 -0.070039 0.491564 -0.108945 0.736796 c-0.15418 0.971836 -0.50582 1.885664 -0.798164 2.81914 c-0.24543 0.783712 -0.56922 1.535664 -0.878048 2.287928 c-0.503556 1.22664 -1.02328 2.462616 -1.81422 3.541368 c-0.290352 0.396055 -0.578048 0.802072 -0.908476 1.170468 c-0.047656 0.053125 -0.103789 0.121289 -0.166133 0.134375 c-0.198828 0.041797 -0.294102 0.158789 -0.347578 0.348125 c-0.026055 0.092305 -0.096953 0.195156 -0.177422 0.244922 c-0.359961 0.222578 -0.441212 0.601484 -0.558244 0.958084 c-0.077422 0.235938 -0.157891 0.467188 -0.346133 0.637616 c-0.350781 0.317617 -0.541092 0.762072 -0.879256 1.09082 c-0.449572 0.437072 -0.882892 0.890936 -1.331756 1.328828 c-0.178086 0.17375 -0.38 0.323008 -0.494416 0.552928 c-0.012852 0.025859 -0.02918 0.055469 -0.052305 0.069805 c-0.629688 0.390586 -1.112108 1.001248 -1.848204 1.23336 c-0.268984 0.084805 -0.5384 0.133555 -0.821132 0.082969 c-1.066484 -0.19082 -2.134024 -0.375859 -3.199572 -0.571756 c-0.15582 -0.028633 -0.307852 -0.093867 -0.452812 -0.161133 c-0.158789 -0.073672 -0.171094 -0.227578 -0.152812 -0.378242 c0.017539 -0.144453 0.096836 -0.24375 0.250547 -0.263633 c0.710508 -0.091914 1.232304 -0.53 1.707696 -1.001796 c0.302266 -0.299922 0.681408 -0.496248 0.958984 -0.825 c0.404764 -0.479376 0.877228 -0.89742 1.239416 -1.418672 c0.248789 -0.358047 0.60328 -0.633984 0.84246 -1.0066 c0.41758 -0.650508 0.99578 -1.181916 1.377264 -1.862188 c0.119688 -0.213438 0.307656 -0.386445 0.451444 -0.59082 c0.564608 -0.80242 1.091876 -1.626408 1.538476 -2.500548 c0.545352 -1.067384 0.96922 -2.186016 1.416524 -3.296288 c0.35668 -0.885468 0.638672 -1.793164 0.86078 -2.712852 c0.287852 -1.191876 0.735468 -2.348556 0.857108 -3.576876 c0.062148 -0.627264 0.178945 -1.241328 0.303281 -1.856288 c0.01668 -0.082539 0.048008 -0.185312 -0.062812 -0.226328 c-0.086524 -0.032031 -0.11918 0.058125 -0.168008 0.107617 c-0.266992 0.270547 -0.516916 0.552304 -0.711876 0.883516 c-0.110625 0.187891 -0.26332 0.350781 -0.511524 0.356406 c0.04668 -0.266172 0.131875 -0.518556 0.342305 -0.699296 c0.165742 -0.142305 0.185742 -0.347734 0.271602 -0.524572 l-0.005 0.002461 c-0.000391 -0.03207 -0.000781 -0.06418 -0.001172 -0.09625 c0 0 0.004922 0.001992 0.004961 0.002031 c0.00043 0.029766 0.000781 0.059531 0.001133 0.089258 c0.028008 -0.028047 0.056055 -0.056094 0.084062 -0.084141 c-0.001992 -0.00207 -0.003984 -0.004062 -0.005977 -0.006133 c0.003945 0.000039 0.007969 0.000078 0.011914 0.000117 l0 0 s-0.001367 0.001602 -0.002695 0.003281 c-0.001328 0.001602 -0.002656 0.003281 -0.002656 0.003281 c0.207891 -0.112109 0.306562 -0.307266 0.38 -0.516132 c0.039023 -0.110976 -0.094062 -0.31375 0.179531 -0.293984 c0.041641 0.003047 0.027891 -0.101758 -0.02543 -0.139805 c-0.059141 -0.042148 -0.124219 -0.075976 -0.186719 -0.113438 c0.234141 0.005469 0.463244 -0.024844 0.496248 -0.310469 c0.069844 -0.604804 0.122461 -1.21172 0.171758 -1.818632 c0.008281 -0.101953 0.074024 -0.224648 -0.032461 -0.315664 c-0.093476 0.011523 -0.127422 0.079688 -0.173828 0.134648 c-0.480936 0.569452 -0.911952 1.174844 -1.330116 1.791836 c-0.474804 0.700468 -0.987344 1.375236 -1.468868 2.071368 c-0.489492 0.707656 -0.90078 1.468712 -1.462968 2.127264 c-0.241602 0.283008 -0.507968 0.549024 -0.673592 0.890116 c0.152226 -0.011719 0.269961 -0.080117 0.344062 -0.217266 c0.096406 -0.178281 0.255547 -0.266172 0.443516 -0.31332 c0.078476 -0.214141 0.115039 -0.463828 0.45004 -0.418672 c0.067812 0.009141 0.15543 -0.070391 0.222422 -0.123476 c0.234141 -0.185625 0.324297 -0.43672 0.28 -0.737344 c0.332109 0.078633 0.470156 -0.00707 0.458752 -0.296641 c-0.004609 -0.117344 0.019727 -0.185781 0.091562 -0.268242 c0.143672 -0.164922 0.271484 -0.343594 0.408868 -0.51418 c0.098867 -0.122774 0.189609 -0.259336 0.36875 -0.273008 c0.000039 -0.02957 0.000039 -0.059141 0.000039 -0.088711 l0.087305 0 c-0.029297 -0.028984 -0.058594 -0.05793 -0.087812 -0.086875 c0.105312 -0.063398 0.233242 -0.201562 0.317578 -0.339375 c0.005703 -0.009336 0.025469 -0.010078 0.038711 -0.014766 c0.000195 0.000508 0.000391 0.000898 0.000586 0.001406 c0.05668 -0.054805 0.113398 -0.109648 0.170078 -0.164453 c0.002539 0.053672 0.005078 0.107383 0.007617 0.161055 c0.218086 -0.196875 0.457188 -0.378047 0.52008 -0.690508 c-0.05293 0.027266 -0.105938 0.054609 -0.158867 0.081875 c-0.000977 -0.123555 -0.05 -0.276094 0.167148 -0.267734 l0 0.177148 c0.148984 0.13375 0.133828 0.279336 0.005547 0.412148 c-0.108516 0.112461 -0.186836 0.219883 -0.1025 0.375938 c-0.152695 -0.007578 -0.236641 0.05875 -0.33582 0.196016 c-0.366289 0.506876 -0.752968 1.001288 -1.162384 1.4741 c-0.337383 0.389648 -0.600744 0.831132 -0.923672 1.230428 c-0.136055 0.168164 -0.196289 0.397812 -0.383984 0.534492 c0.067852 0.051524 0.145078 0.115859 0.010352 0.167226 c-0.171875 0.065547 -0.095234 0.12168 -0.016914 0.188125 c-0.056367 0.087109 -0.112695 0.174219 -0.169062 0.261289 c0.00043 0.000391 0.00082 0.000781 0.001211 0.001172 c-0.44754 0.491172 -0.79836 1.065428 -1.293752 1.51492 c-0.184453 0.167344 -0.310898 0.382734 -0.458752 0.574416 c-0.273906 0.355274 -0.589296 0.666836 -0.891916 0.992384 c0.000156 0.000195 0.000273 0.000391 0.000352 0.000586 c-0.001797 0.00168 -0.003672 0.003281 -0.005469 0.004961 l-0.000078 0.000078 c-0.367109 0.332539 -0.741056 0.6525 -1.176952 0.899256 c-0.350234 0.198242 -0.67668 0.252344 -1.025196 0.011562 c-0.094219 -0.065078 -0.209062 -0.117344 -0.321172 -0.136797 c-0.945116 -0.16418 -1.739376 -0.683436 -2.575272 -1.098672 c-0.451328 -0.224219 -0.727264 -0.611992 -0.838944 -1.12008 c-0.207812 -0.945428 -0.248438 -1.911524 -0.375664 -2.86672 c-0.113633 -0.853164 -0.029102 -1.717852 -0.076289 -2.573944 c-0.043984 -0.798164 0.054531 -1.576916 0.144961 -2.361092 c-0.000039 0 0.005586 0.005469 0.005586 0.005469 c-0.013008 -0.041445 -0.044492 -0.086992 -0.036328 -0.123711 c0.209844 -0.943084 0.161445 -1.9125 0.292656 -2.863828 c0.03957 -0.286992 0.026406 -0.58164 0.030273 -0.872892 c0.001797 -0.135234 0.035 -0.261797 0.088476 -0.381172 c0.106719 -0.238281 0.247422 -0.294844 0.493124 -0.20207 c0.095156 0.035898 0.186172 0.085039 0.274726 0.135781 c0.620508 0.355781 1.238516 0.715936 1.86082 1.068476 c0.106719 0.060469 0.187148 0.136211 0.245625 0.240234 l0.005195 -0.002578 c-0.000039 0.033008 -0.000156 0.066016 -0.000195 0.099062 l-0.004805 -0.002695 c-0.090352 1.107304 -0.196719 2.213632 -0.265742 3.322228 c-0.051562 0.828752 -0.175586 1.657772 -0.05793 2.497148 c0.094844 0.035234 0.098281 -0.070898 0.148203 -0.106016 c-0.00625 -0.042774 -0.026836 -0.090195 -0.015 -0.127188 c0.036562 -0.114102 0.095781 -0.236016 0.238242 -0.199922 c0.102422 0.025898 0.151836 0.134492 0.15168 0.245586 c-0.000508 0.39543 0.013047 0.791876 -0.010352 1.186016 c-0.04875 0.81996 0.000469 1.63508 0.080664 2.44992 c0.006992 0.071094 0.005391 0.153242 0.08543 0.188672 c0.10207 0.045156 0.162188 -0.027773 0.222188 -0.092109 c0.596408 -0.639532 1.172772 -1.293944 1.725468 -1.97414 c0.497148 -0.611836 0.945312 -1.262228 1.476524 -1.849688 c0.450272 -0.497928 0.82008 -1.067772 1.239804 -1.594416 c0.410116 -0.514608 0.843828 -1.014336 1.23078 -1.542968 c0.440508 -0.601836 0.921172 -1.170744 1.36332 -1.770156 c0.373398 -0.506212 0.821132 -0.95254 1.198516 -1.457852 c0.17625 -0.235976 0.44836 -0.371367 0.716368 -0.497228 c0.187969 -0.088242 0.367031 -0.079883 0.549452 0.008789 c0.345195 0.167852 0.663672 0.384922 0.93246 0.650236 c0.158828 0.156797 0.323516 0.287539 0.510744 0.399024 l0.005586 -0.005508 c-0.121328 0.136055 -0.024805 0.255625 0.051211 0.350078 c0.133125 0.165391 0.154258 0.326953 0.092656 0.527264 c-0.05543 0.180234 -0.031758 0.363867 0.102109 0.548476 c0.135976 -0.141328 0.062344 -0.345 0.247344 -0.453048 c0.120742 -0.070508 -0.124102 -0.243242 -0.042109 -0.431328 c0.194414 0.02625 0.374922 0.064102 0.423084 0.312734 c0.01707 0.088047 0.045469 0.206797 0.125664 0.215781 c0.379297 0.042695 0.481248 0.378164 0.681092 0.610236 c-0.000898 0.000117 -0.001797 0.000117 -0.002695 0.000156 c0.252891 0.686796 0.459728 1.377696 0.376953 2.1291 z M45.08112 18.751 c-0.055976 -0.000195 -0.111875 -0.000469 -0.167812 -0.000703 c0.054961 0.13293 0.111133 0.100274 0.167812 0.000703 z M44.58572 19.36424 c0.011094 0.002852 0.037461 -0.053867 0.057266 -0.085078 c-0.02707 -0.000039 -0.054141 -0.000039 -0.081211 -0.000078 c-0.001328 0.032852 -0.019766 0.073906 0.023945 0.085156 z M44.27296 19.62444 c-0.011797 0.016289 -0.012305 0.063516 -0.002734 0.068711 c0.046992 0.024922 0.073789 -0.011484 0.098242 -0.045703 c0.01707 -0.033203 0.008125 -0.060586 -0.026406 -0.059766 c-0.024062 0.000586 -0.055039 0.017266 -0.069102 0.036758 z M42.41696 22.76856 c-0.006406 -0.005195 -0.016797 -0.005508 -0.025391 -0.008047 c0.012383 0.00707 0.024805 0.014219 0.037227 0.021289 c-0.003555 -0.004922 -0.007305 -0.009531 -0.011836 -0.013242 z M42.09772 23.05752 l-0.003398 -0.003867 s0.003242 0.00375 0.003398 0.003867 z M39.86816 25.91608 c0.006016 0.010859 0.011992 0.02168 0.017969 0.032539 c-0.000742 -0.003711 -0.001328 -0.007461 -0.002656 -0.010938 c-0.002969 -0.008008 -0.010039 -0.014453 -0.015312 -0.021602 z M40.08332 24.0126 c0.070938 -0.068555 0.143359 -0.136094 0.156641 -0.241602 c-0.098789 0.050508 -0.131758 0.143398 -0.156641 0.241602 z M40.25136 23.75732 c0.093516 -0.015391 0.147774 -0.07082 0.165078 -0.163789 c-0.081055 0.028594 -0.139883 0.079453 -0.165078 0.163789 z M40.7856 23.22012 c0.111484 -0.086055 0.20375 -0.186445 0.244024 -0.325625 c-0.111524 0.086055 -0.199922 0.189375 -0.244024 0.325625 z M41.75112 23.49668 c-0.003164 0.033477 0.016523 0.050312 0.044336 0.033477 c0.017109 -0.010352 0.023398 -0.038594 0.034453 -0.059062 c-0.020938 -0.002656 -0.042148 -0.008125 -0.062695 -0.006328 c-0.006484 0.000547 -0.015 0.020312 -0.016094 0.031914 z M45.9984 32.98404 c0.19875 -0.294766 0.342774 -0.612072 0.40996 -0.966016 c-0.155508 0.158828 -0.265859 0.34207 -0.384922 0.519452 c-0.127344 0.189805 -0.190039 0.42828 -0.406564 0.552108 c-0.168359 0.443244 -0.535624 0.742968 -0.805936 1.112616 c-0.013945 0.019023 -0.048476 0.02293 -0.074726 0.032891 c-0.088086 0.174883 -0.17625 0.349766 -0.264336 0.524648 c-0.308984 0.174922 -0.367305 0.539844 -0.590272 0.781876 c-0.084805 0.09207 -0.132578 0.21707 -0.110352 0.353047 c0.262344 -0.349766 0.524648 -0.699572 0.786992 -1.049336 c0.373398 -0.463476 0.80832 -0.876796 1.1241 -1.387344 c0.099844 -0.161445 0.209883 -0.316524 0.316055 -0.473944 z M46.57324 31.79332 c0.0975 -0.07418 0.153867 -0.165352 0.064219 -0.377891 c-0.061641 0.164766 -0.101445 0.255976 -0.128008 0.350859 c-0.00832 0.029727 0.034609 0.049219 0.063789 0.027031 z M46.93896 31.17464 c0.005117 -0.011094 0.016484 -0.024219 0.013633 -0.032617 c-0.002734 -0.008086 -0.020156 -0.011211 -0.031094 -0.016484 c-0.005195 0.011133 -0.016484 0.024219 -0.01375 0.032812 c0.002539 0.007969 0.020195 0.011055 0.031211 0.016289 z M47.01788 30.85088 c0.011055 -0.029609 0.03375 -0.064531 0.034336 -0.099766 c0.000508 -0.031719 -0.033086 -0.037695 -0.056445 -0.009648 c-0.015938 0.01918 -0.028242 0.045 -0.032188 0.069453 c-0.005391 0.033359 0.013672 0.048125 0.054297 0.039961 z M47.12648 29.81732 c0.02957 -0.018242 0.033867 -0.040274 0.008633 -0.061094 c-0.006758 -0.005625 -0.025234 -0.003828 -0.034375 0.001445 c-0.02918 0.016875 -0.032891 0.040586 -0.009062 0.061328 c0.006289 0.005508 0.02293 -0.000781 0.034805 -0.00168 z M47.36144 23.77224 c0.03418 -0.034336 0.013359 -0.066367 -0.000039 -0.09875 c-0.008672 0.024297 -0.018398 0.048359 -0.023672 0.073398 c-0.001367 0.006484 0.015312 0.016797 0.023711 0.025352 z M47.3624 23.65552 c0.110039 -0.125469 0.251836 -0.244726 0.087266 -0.424296 c-0.075 0.132109 -0.112383 0.271797 -0.087266 0.424296 z M47.8922 27.76 c0.006758 -0.009727 0.004336 -0.025742 0.006094 -0.038906 c-0.011328 -0.003242 -0.026836 -0.012539 -0.033047 -0.008281 c-0.009531 0.006484 -0.018047 0.022578 -0.017539 0.034219 c0.001875 0.043359 0.019805 0.048594 0.044492 0.012969 z M47.8854 27.40396 c0.038828 -0.112774 0.015859 -0.206953 -0.030273 -0.307774 c-0.012422 0.089453 -0.129062 0.191914 0.030273 0.307774 z M47.82556 22.6978 c0.005234 -0.004844 0.010156 -0.009844 0.013633 -0.015664 c0.004648 -0.007617 0.003125 -0.018945 0.004336 -0.028633 c-0.005977 0.014766 -0.011992 0.029531 -0.017969 0.044297 z M48.06644 26.49204 c-0.046016 0.083828 -0.066328 0.167226 0.004648 0.248789 c-0.001562 -0.08293 -0.003086 -0.165859 -0.004648 -0.248789 z M48.07868 27.07512 l0.00293 -0.02668 l-0.027266 0.010703 z M48.07868 26.4592 c0.029141 -0.025781 0.088672 -0.040586 0.02875 -0.098359 c-0.009688 0.032656 -0.019258 0.065469 -0.02875 0.098359 z M49.021 18.47 c0.001016 -0.040195 0.010273 -0.097812 -0.011445 -0.117109 c-0.041719 -0.037266 -0.077266 0.007109 -0.080703 0.046992 c-0.003164 0.036953 0.017812 0.075976 0.026523 0.108164 c0.04293 0.011875 0.064688 -0.001758 0.065625 -0.038047 z M49 17.99184 c0.009336 -0.00793 0.027305 -0.016797 0.026562 -0.023555 c-0.0025 -0.022812 -0.01168 -0.044844 -0.018438 -0.067188 c-0.00918 0.007656 -0.026797 0.016328 -0.026055 0.022891 c0.002539 0.022969 0.011445 0.045274 0.01793 0.067852 z M49.12712 17.2976 c0.008711 -0.128438 -0.001406 -0.242422 -0.097539 -0.358438 c-0.235664 -0.283672 -0.230156 -0.358555 -0.045469 -0.64504 c0.020156 0.112852 0.039453 0.221094 0.058906 0.329375 c0.172969 -0.202109 0.036133 -0.48242 0.171602 -0.693908 c-0.087031 -0.054922 -0.054844 -0.279141 -0.248789 -0.182188 c-0.000039 0.003867 -0.000234 0.007734 -0.000391 0.011602 c-0.001758 -0.003047 -0.003633 -0.006016 -0.005312 -0.009062 l0.005859 -0.005312 c-0.068672 -0.002266 -0.135703 -0.008828 -0.182539 -0.0675 c-0.11625 0.062774 -0.148125 0.164531 -0.153359 0.291055 c-0.008164 0.197774 -0.031875 0.394883 -0.050156 0.605584 c-0.113086 -0.085195 -0.021211 -0.217774 -0.114648 -0.289609 c-0.066055 0.116992 -0.101797 0.242188 -0.113242 0.373125 c-0.034258 0.391836 -0.073008 0.783476 -0.095938 1.176056 c-0.046836 0.801992 -0.113125 1.608124 -0.320938 2.379804 c-0.179961 0.667968 -0.24375 1.34754 -0.355703 2.02164 c-0.053906 0.324609 -0.157422 0.64746 -0.128711 0.984648 c0.207539 -0.107266 0.165312 -0.39418 0.361836 -0.509452 c0.000313 -0.000234 0.000625 -0.000469 0.000898 -0.000742 c-0.063906 -0.070781 -0.053789 -0.146797 -0.029922 -0.236133 c0.100078 -0.374883 0.298438 -0.7175 0.363359 -1.102852 c0.03375 -0.200312 0.157148 -0.367695 0.198789 -0.561092 c0.045898 -0.21293 0.052695 -0.434064 0.09375 -0.64836 c0.17418 -0.908592 0.1575 -1.85332 0.513712 -2.7275 c0.098555 0.008008 0.166914 -0.031602 0.173945 -0.135703 z M49.03884 16.64316 c-0.004648 0.006445 -0.009336 0.012852 -0.008633 0.018633 c0.001563 0.012578 0.005391 0.024844 0.009414 0.03707 c-0.000312 -0.018594 -0.000547 -0.037109 -0.000781 -0.055703 z M49.1844 20.35104 c0.007188 -0.003281 0.00625 -0.024219 0.009414 -0.038828 c-0.004453 -0.024609 -0.009258 -0.050781 -0.013984 -0.076992 c-0.008867 0.02375 -0.020586 0.046875 -0.025781 0.071367 c-0.008008 0.037656 0.005547 0.055781 0.030352 0.044453 z M49.29948 17.14988 c-0.050703 0.106484 0.040859 0.133203 0.102695 0.176094 c0.013477 -0.071289 0.073476 -0.151094 -0.033945 -0.200234 c-0.01668 -0.007578 -0.061016 0.007969 -0.06875 0.024141 z M49.40528 18.05444 c0.023203 -0.024688 0.024062 -0.050508 -0.001445 -0.073203 c-0.027188 -0.024219 -0.051875 -0.01875 -0.065234 0.014414 c-0.004688 0.01168 -0.003906 0.028555 0.000898 0.040391 c0.013281 0.032852 0.036797 0.038359 0.065781 0.018398 z M49.40804 17.35412 c-0.005117 0.035117 -0.030312 0.076016 0.03207 0.091562 c-0.010664 -0.030508 -0.021367 -0.061055 -0.03207 -0.091562 z M49.43944 16.8018 c0.08418 -0.449884 0.025508 -0.892072 0.009414 -1.338084 c-0.235508 0.084766 -0.18707 0.296016 -0.225625 0.466248 c0.0875 0.035508 0.173164 0.112812 0.115234 0.187774 c-0.208516 0.269726 -0.050391 0.467616 0.100976 0.684064 z M49.97976 15.47752 c-0.0225 0.002383 0.004102 0.058516 0.033047 0.087461 c0.003867 -0.037578 0.061914 -0.097578 -0.033047 -0.087461 z M50.02304 15.60444 c0.002578 0.00832 0.009648 0.015234 0.014727 0.022695 c-0.005625 -0.011836 -0.011289 -0.023711 -0.016953 -0.035547 c0.000508 0.004414 0.000938 0.00875 0.002227 0.012852 z M50.06868 15.23892 c-0.009297 0.003242 -0.01625 0.013086 -0.024258 0.019961 l0.046289 -0.02332 c-0.007617 0.000352 -0.015156 0.000977 -0.022031 0.003359 z M48.95188 17.43016 l0.00375 -0.003086 c-0.00082 0.001992 -0.001523 0.004062 -0.002344 0.006133 c-0.001758 -0.000156 -0.00332 -0.000039 -0.005078 -0.000195 l0.000039 -0.000039 c0.000781 -0.001914 0.001797 -0.004102 0.002695 -0.006094 c0.001523 0.000117 0.003047 0.000234 0.00457 0.000313 c0.000039 0 -0.001836 0.001484 -0.003633 0.002969 z M44.90084 20.25084 c0.001953 -0.004102 0.003945 -0.008242 0.005898 -0.012344 c0.002578 -0.000039 0.005039 -0.000352 0.007617 -0.000469 c-0.000391 0.002266 -0.00082 0.004531 -0.001211 0.006797 c0 0 -0.002969 -0.00293 -0.004766 -0.004727 c0.001797 0.001797 0.004766 0.004727 0.004766 0.004766 z M44.47552 20.68388 c0 0 -0.005039 -0.004883 -0.005 -0.004883 c0.001328 -0.000391 0.0025 -0.001094 0.003828 -0.001523 c0.000508 0.002188 0.000664 0.004141 0.001172 0.006406 z M36.853 18.78716 c0.014453 -0.074492 0.063711 -0.127578 0.145938 -0.108008 c0.048789 0.011641 0.048594 0.066524 0.03125 0.104062 c-0.02668 0.057656 -0.029023 0.139141 -0.116524 0.148906 c-0.054375 -0.035781 -0.071211 -0.090469 -0.060664 -0.144961 z M44.2726 20.87456 c0.004922 -0.005195 0.009844 -0.01043 0.014727 -0.015664 l0.005312 0.005195 c-0.004688 0.005664 -0.011836 0.008594 -0.020039 0.010469 z M44.21072 20.94032 c-0.024492 -0.070508 0.027969 -0.058164 0.061914 -0.065781 c-0.020625 0.021953 -0.041289 0.043867 -0.061914 0.065781 z M44.72956 20.327 c0.001602 0.001602 0.003203 0.003242 0.004805 0.004844 c0.05543 -0.027031 0.110938 -0.054062 0.166367 -0.081133 c-0.02668 0.055781 -0.053438 0.111562 -0.080117 0.167383 l0.005195 0.005195 l-0.006211 -0.00293 c-0.119766 0.079297 -0.201406 0.210078 -0.345234 0.256953 c-0.042695 -0.209102 0.098047 -0.283906 0.258125 -0.344531 z M45.52348 18.8372 c0 0 0.00707 -0.006992 0.00707 -0.006953 c-0.000195 0.004531 -0.000352 0.009062 -0.000547 0.013594 c-0.002187 -0.002266 -0.004336 -0.004453 -0.006523 -0.006641 z M45.52716 18.92036 c0.000938 -0.025469 0.001914 -0.050938 0.002891 -0.076445 c0.02543 0.025859 0.050898 0.05168 0.076328 0.0775 z M44.3874 20.77072 c0 0 -0.005195 -0.005195 -0.005156 -0.005195 c0.029492 -0.028906 0.058906 -0.057734 0.088281 -0.086562 c-0.000039 0 0.004961 0.004844 0.004922 0.004883 c-0.029375 0.028984 -0.058711 0.05793 -0.088047 0.086875 z M44.29268 20.86416 c0 0 -0.00543 -0.005078 -0.005312 -0.005195 c0.031641 -0.031133 0.063281 -0.062344 0.094883 -0.093438 c0 0.000039 0.005195 0.005234 0.005156 0.005273 c-0.031602 0.031133 -0.063203 0.062226 -0.094726 0.093359 z M43.84612 21.39568 l0.008945 -0.012109 l0.002305 0.002461 z M45.4498 18.1412 l-0.00543 -0.005859 c0.001758 -0.000898 0.003555 -0.001836 0.005312 -0.002773 c0 0.002891 0.000156 0.005781 0.000117 0.008633 z M45.0804 18.57064 l0.004961 0.005195 c-0.001484 0.001406 -0.003008 0.002891 -0.004492 0.004297 c-0.000156 -0.003125 -0.000312 -0.006289 -0.000469 -0.009414 c0 0 -0.000039 -0.000039 0 -0.000078 l0 0.000078 l0 -0.000078 z M45.82164 17.5994 l0.027773 0.00293 l-0.016562 0.025391 z M45.88296 17.86624 c-0.062226 0.054648 -0.12457 0.040703 -0.186953 0.000234 c0.062344 -0.000039 0.124609 -0.000156 0.186953 -0.000234 z M45.44972 18.14104 c-0.00707 0.000156 -0.014141 0 -0.021172 0.000195 c0.005312 -0.001953 0.010586 -0.003906 0.015898 -0.005859 c0 0 0.005469 0.00582 0.005273 0.005664 z M45.38736 18.15636 c0.008672 -0.004727 0.016797 -0.011562 0.026055 -0.013711 c0.004883 -0.001094 0.01 -0.001289 0.015117 -0.001445 c-0.01375 0.005039 -0.027422 0.010117 -0.041172 0.015156 z M42.80188 21.21096 l-0.004844 -0.005 c0.029961 -0.029609 0.059922 -0.05918 0.089883 -0.088789 c0 0 0.005117 0.005117 0.005078 0.005156 c-0.030078 0.029531 -0.060039 0.059062 -0.090117 0.088633 l0 0 z M48.46228 17.94264 c0 -0.254961 0.000039 -0.50996 0.000039 -0.76492 c0.129297 0.264297 0.024219 0.511484 -0.000039 0.76492 z M48.39772 18.76184 c0.003359 -0.000508 0.014453 0.049688 0.021875 0.076484 c-0.006992 0.034805 0.015781 0.084883 -0.044141 0.089883 c-0.004688 0.000391 -0.022148 -0.050078 -0.018398 -0.074531 c0.005117 -0.033203 -0.015273 -0.083359 0.040664 -0.091836 z M48.96644 15.86988 c-0.005664 -0.036016 -0.00207 -0.073711 -0.000781 -0.110898 c0.019062 0.033047 0.040625 0.065234 0.053594 0.100547 c0.008789 0.024023 0.00957 0.074492 0.000859 0.077734 c-0.07207 0.026758 -0.049062 -0.038164 -0.053672 -0.067383 z M48.86988 17.42616 l-0.00582 -0.005156 c0.002344 0.000156 0.004648 0.000313 0.006953 0.000469 c-0.000391 0.001563 -0.000703 0.003164 -0.001133 0.004688 z M48.96744 17.28988 c0.048047 0.013242 0.004922 0.088008 -0.01625 0.136758 c-0.026797 -0.001719 -0.053476 -0.003477 -0.080156 -0.005195 c0.01457 -0.060039 0.002148 -0.157539 0.096406 -0.131562 z M48.85788 17.43852 c0.00207 -0.005859 0.004062 -0.011719 0.006133 -0.017539 c0 0 0.00582 0.005117 0.005859 0.005234 c-0.002773 0.004609 -0.00707 0.008633 -0.011992 0.012305 z M48.826 17.52832 c-0.053476 -0.057461 0.002344 -0.068008 0.031719 -0.089844 c-0.010547 0.029922 -0.021172 0.059883 -0.031719 0.089844 z M56.30404 22.8288 l0.004102 0.003125 c-0.001523 -0.000039 -0.003086 -0.000156 -0.004648 -0.000195 c0.000195 -0.000977 0.000391 -0.001953 0.000547 -0.00293 z M58.5522 17.17364 l-0.003984 0.002734 c-0.000039 -0.00082 -0.000078 -0.001719 -0.000078 -0.002539 c0.001367 -0.000039 0.002656 -0.000195 0.004062 -0.000195 z M67.61672 25.96936 c0.189531 0.435272 0.212617 0.921408 0.174883 1.405548 c-0.058516 0.748556 -0.270469 1.46254 -0.453164 2.183788 l0.005273 -0.004336 c-0.130469 0.429728 -0.320898 0.83242 -0.56078 1.21078 c-0.089062 0.140469 -0.165469 0.283047 -0.20375 0.445272 c-0.013633 0.057891 -0.01582 0.127812 -0.050352 0.170117 c-0.666756 0.8166 -1.093944 1.816916 -1.894688 2.525936 c-0.346875 0.307188 -0.598752 0.691796 -0.940548 1.001368 c-0.516564 0.467852 -1.025584 0.948592 -1.49492 1.462968 c-0.678788 0.743908 -1.46004 1.37254 -2.304648 1.888476 c-0.949572 0.58004 -1.885116 1.204648 -2.951248 1.582264 c-0.591328 0.209492 -1.153164 0.211484 -1.745584 0.003594 c-0.633516 -0.222305 -1.285156 -0.394062 -1.932264 -0.5759 c-0.289414 -0.081367 -0.560312 -0.206016 -0.838244 -0.314492 c-0.111758 -0.043594 -0.214961 -0.105234 -0.279453 -0.214492 c-0.128516 -0.217695 -0.007422 -0.483516 0.231875 -0.585392 c0.169922 -0.072344 0.338672 -0.070781 0.476056 0.004219 c0.364141 0.198828 0.682852 0.091172 1.00918 -0.081719 c0.446564 -0.236562 0.892384 -0.47004 1.328436 -0.729728 c0.591836 -0.3525 1.099688 -0.817188 1.702968 -1.1509 c0.48172 -0.266445 0.918632 -0.613516 1.243752 -1.075428 c0.034375 -0.048789 0.06293 -0.117617 0.110938 -0.138398 c0.442304 -0.191406 0.633712 -0.65492 1.009572 -0.921796 c0.164492 -0.116797 0.284375 -0.302383 0.408592 -0.468592 c0.189297 -0.253359 0.408008 -0.479256 0.646796 -0.681564 c0.2525 -0.213945 0.461172 -0.460312 0.655352 -0.72508 c0.502892 -0.685704 1.05418 -1.33242 1.530392 -2.041756 c0.639532 -0.952616 1.094844 -1.98164 1.436916 -3.063008 c0.246367 -0.778672 0.164883 -1.566212 -0.104844 -2.332772 c-0.067891 -0.192969 -0.18625 -0.255508 -0.413164 -0.23 c-1.037344 0.11668 -1.99078 0.487616 -2.931836 0.907228 c-0.285664 0.127422 -0.576056 0.24418 -0.864296 0.36582 l0.002695 -0.002695 c-0.481368 0.197383 -0.95086 0.4234 -1.473632 0.508592 c-0.202695 0.033008 -0.397578 0.125508 -0.590392 0.204648 c-0.302774 0.124258 -0.626876 0.164258 -0.919804 0.0525 c-0.449492 -0.171445 -0.92492 -0.233242 -1.375664 -0.390703 c-0.563048 -0.196719 -1.125272 -0.39918 -1.697852 -0.564336 c-0.693828 -0.200117 -0.999376 -0.70508 -1.151916 -1.352812 c-0.280859 -1.192616 -0.06457 -2.34914 0.313789 -3.474336 c0.31332 -0.931796 0.69246 -1.842228 1.05164 -2.758672 c0.356562 -0.909688 0.866248 -1.733712 1.356524 -2.562188 c0.313047 -0.528984 0.691444 -1.036484 1.0784 -1.530312 c0.4641 -0.592304 1.00418 -1.097736 1.52832 -1.625624 c0.651092 -0.655744 1.43078 -1.117928 2.271248 -1.470312 c0.276484 -0.115898 0.613828 -0.120117 0.916056 -0.004492 c0.79754 0.305117 1.53086 0.736564 2.2666 1.163752 c0.273789 0.158984 0.398125 0.437344 0.567264 0.676132 c0.095156 0.134336 -0.012109 0.304141 -0.159609 0.271953 c-0.854064 -0.186133 -1.443752 0.308906 -2.045392 0.774376 c-0.151211 0.116992 -0.27707 0.2875 -0.498984 0.152383 c-0.000156 0.000508 -0.000312 0.001016 -0.000508 0.001523 c-0.179726 0.005391 -0.289297 0.106016 -0.35832 0.261641 c0.071562 -0.011797 0.144062 -0.023789 0.255078 -0.042109 c-0.121445 0.252617 -0.172774 0.522812 -0.547108 0.40078 c-0.133359 -0.043476 -0.216602 0.074062 -0.281367 0.176875 c-0.435744 0.69168 -1.005744 1.283124 -1.460272 1.96004 c-0.089961 0.134024 -0.274922 0.2625 -0.124648 0.466992 c0.011914 -0.007734 0.023906 -0.015469 0.03582 -0.023242 c-0.011211 0.008867 -0.022422 0.017773 -0.033633 0.02668 l-0.002734 -0.003125 c0.00082 0.029492 0.001719 0.058984 0.002539 0.088476 c-0.229922 0.001328 -0.328516 0.168086 -0.40586 0.343711 c-0.0525 0.119258 -0.049961 0.217461 0.128672 0.117774 c0.07043 -0.039297 0.131289 0.025156 0.095 0.082109 c-0.182656 0.286914 -0.280274 0.642616 -0.622384 0.805704 c0.039414 0.088984 0.079492 0.178008 0.000742 0.266211 l0.000039 0 c-0.362188 0.806484 -0.718672 1.615664 -1.091212 2.417344 c-0.077383 0.166484 -0.142226 0.324453 -0.124414 0.507772 c0.018242 0.187539 -0.08375 0.341875 -0.141055 0.506992 c-0.059024 0.169922 -0.120781 0.334726 -0.082695 0.518164 c-0.028633 0.029414 -0.057226 0.058789 -0.08582 0.088203 l0.084375 0.003867 c-0.049531 0.292305 -0.109219 0.58336 -0.145625 0.877264 c-0.039258 0.316758 0.043906 0.380469 0.346914 0.263164 c0.47258 -0.182852 0.949648 -0.358906 1.40672 -0.57586 c0.953244 -0.45246 1.97086 -0.686016 2.995428 -0.872968 c0.506132 -0.092344 1.035392 -0.054375 1.548244 0.091367 c0.838164 0.238203 1.616132 0.615392 2.379844 1.019608 c0.409064 0.216524 0.853516 0.345352 1.252384 0.590352 c0.696444 0.427736 1.20992 1.011212 1.529376 1.744804 z M61.86136 13.14296 c-0.141836 0.031719 -0.232148 0.114141 -0.257266 0.260664 c0.11293 -0.060117 0.205703 -0.140039 0.257266 -0.260664 z M61.17776 13.73124 c-0.032109 -0.031172 -0.06832 0.016836 -0.086445 0.052812 c-0.010859 0.021562 -0.017734 0.045078 -0.025742 0.068047 c0.021328 -0.011992 0.043476 -0.02293 0.062734 -0.037656 c0.028242 -0.021602 0.085352 -0.048398 0.049453 -0.083203 z M57.73772 18.5064 c0.000039 -0.022109 0.000078 -0.044141 0.000195 -0.066172 c-0.00625 0.007344 -0.013477 0.014766 -0.012656 0.021211 c0.001914 0.015312 0.007227 0.030117 0.012461 0.044961 z M57.92488 17.9708 c0.023008 -0.032188 0.089297 -0.055234 0.019102 -0.107148 c-0.006367 0.035703 -0.012734 0.071445 -0.019102 0.107148 z M57.75068 18.27232 c-0.050938 0.048242 -0.024688 0.101797 -0.009648 0.154414 c0.041719 -0.040274 0.080664 -0.082188 0.046524 -0.146328 c-0.004062 -0.007617 -0.031406 -0.013281 -0.036875 -0.008086 z M57.7152 18.77084 c-0.00707 -0.004141 -0.01668 -0.003906 -0.025195 -0.005625 c0.013555 0.005977 0.027109 0.011875 0.040664 0.017852 c-0.004844 -0.004609 -0.009844 -0.008945 -0.015469 -0.012227 z M59.71236 15.74048 l0.003164 0.003047 c-0.001953 0.000898 -0.003672 0.001992 -0.005625 0.002891 c0.00082 -0.001953 0.001641 -0.003945 0.002461 -0.005938 z M59.08076 16.6336 c0.166484 -0.326562 0.248164 -0.713712 0.62914 -0.887304 c-0.142656 0.342656 -0.290586 0.68172 -0.618244 0.897228 c-0.04043 0.124805 -0.128281 0.179219 -0.301367 0.19082 c0.084024 -0.136055 0.200195 -0.151055 0.290586 -0.200664 z M60.33912 14.66112 l0.003906 0.004922 c-0.000977 0.001289 -0.001719 0.002656 -0.002695 0.003945 c-0.000391 -0.002969 -0.00082 -0.005898 -0.001211 -0.008867 z M60.26508 14.94512 c-0.010078 -0.100703 0.014062 -0.193555 0.075274 -0.275234 c0.012383 0.095 0.035469 0.186289 0.093242 0.265625 l-0.002969 -0.002969 l0.002969 0.002969 s-0.002969 -0.00293 -0.002969 -0.002969 c-0.020234 0.051328 -0.023672 0.127344 -0.086641 0.134141 c-0.078476 0.008516 -0.073633 -0.068516 -0.078906 -0.121562 z M59.8082 15.64792 c-0.000586 0.001289 -0.001172 0.002539 -0.001758 0.00375 l-0.001367 -0.001367 l0.001406 0.001406 c-0.030312 0.030508 -0.060664 0.061016 -0.090976 0.091524 l-0.003125 -0.003125 c0.030508 -0.030352 0.060976 -0.060703 0.091445 -0.091055 c0.001406 -0.000391 0.002891 -0.000742 0.004375 -0.001133 z M59.94632 15.53284 c0.035312 0.042734 -0.016484 0.074258 -0.056641 0.091211 c-0.025859 0.010938 -0.05418 0.016367 -0.081562 0.023789 c0.011641 -0.026016 0.020938 -0.053594 0.036523 -0.076953 c0.024453 -0.036562 0.067226 -0.079688 0.10168 -0.038047 z M58.53076 17.41752 c-0.045352 -0.006016 -0.022539 -0.073867 -0.011914 -0.115469 c0.010352 -0.04082 0.021016 -0.081562 0.031562 -0.122383 c0.020195 0.037578 0.048984 0.073711 0.05582 0.113594 c0.009766 0.057344 0.004258 0.134766 -0.075469 0.124258 z M58.55212 17.173 c-0.000547 0.002188 -0.001133 0.004453 -0.001719 0.006641 c-0.000742 -0.001328 -0.001562 -0.002617 -0.002266 -0.003945 c0 0 0.004023 -0.002734 0.003984 -0.002695 z M60.0772 15.32588 c0.003945 -0.011875 0.008203 -0.033945 0.011836 -0.033828 c0.021992 0.000586 0.043828 0.00625 0.065742 0.010195 c-0.003633 0.011875 -0.007305 0.023711 -0.010977 0.035625 c-0.022227 -0.003945 -0.044414 -0.007969 -0.066602 -0.011992 z M60.69748 14.73276 c-0.00082 -0.011484 0.013086 -0.02418 0.020156 -0.036289 c0.012031 0.003828 0.030742 0.004414 0.034453 0.012188 c0.005273 0.010938 0.004688 0.031562 -0.002656 0.04043 c-0.027422 0.033047 -0.048672 0.026367 -0.051953 -0.016328 z M60.4342 14.66156 l-0.004688 0.004531 l-0.086484 0 c0 0 -0.003945 -0.005 -0.003906 -0.005 c0.031719 0.000156 0.063398 0.000313 0.095078 0.000469 z M56.30608 22.74288 c-0.000352 -0.001211 -0.000781 -0.002461 -0.001133 -0.003672 l0 -0.000117 c0.000352 -0.000352 0.000703 -0.000742 0.001055 -0.001094 c0 0.001602 0.000039 0.003281 0.000078 0.004883 z M56.32108 22.80012 c0.000742 0.00707 -0.006992 0.014961 -0.013203 0.022812 c-0.000625 -0.02668 -0.001211 -0.053359 -0.001797 -0.080039 c0.005664 0.018984 0.013008 0.037852 0.015 0.057226 z M56.30808 22.83124 c0.000039 0.000039 -0.004141 -0.003086 -0.004141 -0.003086 c0.001094 -0.001719 0.002578 -0.003477 0.003945 -0.005234 c0.000039 0.002773 0.000156 0.005547 0.000195 0.00832 z M73.62904 22.8288 l0.004102 0.003125 c-0.001523 -0.000039 -0.003086 -0.000156 -0.004648 -0.000195 c0.000195 -0.000977 0.000391 -0.001953 0.000547 -0.00293 z M75.8772 17.17364 l-0.003984 0.002734 c-0.000039 -0.00082 -0.000078 -0.001719 -0.000078 -0.002539 c0.001367 -0.000039 0.002656 -0.000195 0.004062 -0.000195 z M84.94172 25.96936 c0.189531 0.435272 0.212617 0.921408 0.174883 1.405548 c-0.058516 0.748556 -0.270469 1.46254 -0.453164 2.183788 l0.005273 -0.004336 c-0.130469 0.429728 -0.320898 0.83242 -0.56078 1.21078 c-0.089062 0.140469 -0.165469 0.283047 -0.20375 0.445272 c-0.013633 0.057891 -0.01582 0.127812 -0.050352 0.170117 c-0.666756 0.8166 -1.093944 1.816916 -1.894688 2.525936 c-0.346875 0.307188 -0.598752 0.691796 -0.940548 1.001368 c-0.516564 0.467852 -1.025584 0.948592 -1.49492 1.462968 c-0.678788 0.743908 -1.46004 1.37254 -2.304648 1.888476 c-0.949572 0.58004 -1.885116 1.204648 -2.951248 1.582264 c-0.591328 0.209492 -1.153164 0.211484 -1.745584 0.003594 c-0.633516 -0.222305 -1.285156 -0.394062 -1.932264 -0.5759 c-0.289414 -0.081367 -0.560312 -0.206016 -0.838244 -0.314492 c-0.111758 -0.043594 -0.214961 -0.105234 -0.279453 -0.214492 c-0.128516 -0.217695 -0.007422 -0.483516 0.231875 -0.585392 c0.169922 -0.072344 0.338672 -0.070781 0.476056 0.004219 c0.364141 0.198828 0.682852 0.091172 1.00918 -0.081719 c0.446564 -0.236562 0.892384 -0.47004 1.328436 -0.729728 c0.591836 -0.3525 1.099688 -0.817188 1.702968 -1.1509 c0.48172 -0.266445 0.918632 -0.613516 1.243752 -1.075428 c0.034375 -0.048789 0.06293 -0.117617 0.110938 -0.138398 c0.442304 -0.191406 0.633712 -0.65492 1.009572 -0.921796 c0.164492 -0.116797 0.284375 -0.302383 0.408592 -0.468592 c0.189297 -0.253359 0.408008 -0.479256 0.646796 -0.681564 c0.2525 -0.213945 0.461172 -0.460312 0.655352 -0.72508 c0.502892 -0.685704 1.05418 -1.33242 1.530392 -2.041756 c0.639532 -0.952616 1.094844 -1.98164 1.436916 -3.063008 c0.246367 -0.778672 0.164883 -1.566212 -0.104844 -2.332772 c-0.067891 -0.192969 -0.18625 -0.255508 -0.413164 -0.23 c-1.037344 0.11668 -1.99078 0.487616 -2.931836 0.907228 c-0.285664 0.127422 -0.576056 0.24418 -0.864296 0.36582 l0.002695 -0.002695 c-0.481368 0.197383 -0.95086 0.4234 -1.473632 0.508592 c-0.202695 0.033008 -0.397578 0.125508 -0.590392 0.204648 c-0.302774 0.124258 -0.626876 0.164258 -0.919804 0.0525 c-0.449492 -0.171445 -0.92492 -0.233242 -1.375664 -0.390703 c-0.563048 -0.196719 -1.125272 -0.39918 -1.697852 -0.564336 c-0.693828 -0.200117 -0.999376 -0.70508 -1.151916 -1.352812 c-0.280859 -1.192616 -0.06457 -2.34914 0.313789 -3.474336 c0.31332 -0.931796 0.69246 -1.842228 1.05164 -2.758672 c0.356562 -0.909688 0.866248 -1.733712 1.356524 -2.562188 c0.313047 -0.528984 0.691444 -1.036484 1.0784 -1.530312 c0.4641 -0.592304 1.00418 -1.097736 1.52832 -1.625624 c0.651092 -0.655744 1.43078 -1.117928 2.271248 -1.470312 c0.276484 -0.115898 0.613828 -0.120117 0.916056 -0.004492 c0.79754 0.305117 1.53086 0.736564 2.2666 1.163752 c0.273789 0.158984 0.398125 0.437344 0.567264 0.676132 c0.095156 0.134336 -0.012109 0.304141 -0.159609 0.271953 c-0.854064 -0.186133 -1.443752 0.308906 -2.045392 0.774376 c-0.151211 0.116992 -0.27707 0.2875 -0.498984 0.152383 c-0.000156 0.000508 -0.000312 0.001016 -0.000508 0.001523 c-0.179726 0.005391 -0.289297 0.106016 -0.35832 0.261641 c0.071562 -0.011797 0.144062 -0.023789 0.255078 -0.042109 c-0.121445 0.252617 -0.172774 0.522812 -0.547108 0.40078 c-0.133359 -0.043476 -0.216602 0.074062 -0.281367 0.176875 c-0.435744 0.69168 -1.005744 1.283124 -1.460272 1.96004 c-0.089961 0.134024 -0.274922 0.2625 -0.124648 0.466992 c0.011914 -0.007734 0.023906 -0.015469 0.03582 -0.023242 c-0.011211 0.008867 -0.022422 0.017773 -0.033633 0.02668 l-0.002734 -0.003125 c0.00082 0.029492 0.001719 0.058984 0.002539 0.088476 c-0.229922 0.001328 -0.328516 0.168086 -0.40586 0.343711 c-0.0525 0.119258 -0.049961 0.217461 0.128672 0.117774 c0.07043 -0.039297 0.131289 0.025156 0.095 0.082109 c-0.182656 0.286914 -0.280274 0.642616 -0.622384 0.805704 c0.039414 0.088984 0.079492 0.178008 0.000742 0.266211 l0.000039 0 c-0.362188 0.806484 -0.718672 1.615664 -1.091212 2.417344 c-0.077383 0.166484 -0.142226 0.324453 -0.124414 0.507772 c0.018242 0.187539 -0.08375 0.341875 -0.141055 0.506992 c-0.059024 0.169922 -0.120781 0.334726 -0.082695 0.518164 c-0.028633 0.029414 -0.057226 0.058789 -0.08582 0.088203 l0.084375 0.003867 c-0.049531 0.292305 -0.109219 0.58336 -0.145625 0.877264 c-0.039258 0.316758 0.043906 0.380469 0.346914 0.263164 c0.47258 -0.182852 0.949648 -0.358906 1.40672 -0.57586 c0.953244 -0.45246 1.97086 -0.686016 2.995428 -0.872968 c0.506132 -0.092344 1.035392 -0.054375 1.548244 0.091367 c0.838164 0.238203 1.616132 0.615392 2.379844 1.019608 c0.409064 0.216524 0.853516 0.345352 1.252384 0.590352 c0.696444 0.427736 1.20992 1.011212 1.529376 1.744804 z M79.18636 13.14296 c-0.141836 0.031719 -0.232148 0.114141 -0.257266 0.260664 c0.11293 -0.060117 0.205703 -0.140039 0.257266 -0.260664 z M78.50276 13.73124 c-0.032109 -0.031172 -0.06832 0.016836 -0.086445 0.052812 c-0.010859 0.021562 -0.017734 0.045078 -0.025742 0.068047 c0.021328 -0.011992 0.043476 -0.02293 0.062734 -0.037656 c0.028242 -0.021602 0.085352 -0.048398 0.049453 -0.083203 z M75.06272 18.5064 c0.000039 -0.022109 0.000078 -0.044141 0.000195 -0.066172 c-0.00625 0.007344 -0.013477 0.014766 -0.012656 0.021211 c0.001914 0.015312 0.007227 0.030117 0.012461 0.044961 z M75.24988 17.9708 c0.023008 -0.032188 0.089297 -0.055234 0.019102 -0.107148 c-0.006367 0.035703 -0.012734 0.071445 -0.019102 0.107148 z M75.07568 18.27232 c-0.050938 0.048242 -0.024688 0.101797 -0.009648 0.154414 c0.041719 -0.040274 0.080664 -0.082188 0.046524 -0.146328 c-0.004062 -0.007617 -0.031406 -0.013281 -0.036875 -0.008086 z M75.0402 18.77084 c-0.00707 -0.004141 -0.01668 -0.003906 -0.025195 -0.005625 c0.013555 0.005977 0.027109 0.011875 0.040664 0.017852 c-0.004844 -0.004609 -0.009844 -0.008945 -0.015469 -0.012227 z M77.03736 15.74048 l0.003164 0.003047 c-0.001953 0.000898 -0.003672 0.001992 -0.005625 0.002891 c0.00082 -0.001953 0.001641 -0.003945 0.002461 -0.005938 z M76.40576 16.6336 c0.166484 -0.326562 0.248164 -0.713712 0.62914 -0.887304 c-0.142656 0.342656 -0.290586 0.68172 -0.618244 0.897228 c-0.04043 0.124805 -0.128281 0.179219 -0.301367 0.19082 c0.084024 -0.136055 0.200195 -0.151055 0.290586 -0.200664 z M77.66412 14.66112 l0.003906 0.004922 c-0.000977 0.001289 -0.001719 0.002656 -0.002695 0.003945 c-0.000391 -0.002969 -0.00082 -0.005898 -0.001211 -0.008867 z M77.59008 14.94512 c-0.010078 -0.100703 0.014062 -0.193555 0.075274 -0.275234 c0.012383 0.095 0.035469 0.186289 0.093242 0.265625 l-0.002969 -0.002969 l0.002969 0.002969 s-0.002969 -0.00293 -0.002969 -0.002969 c-0.020234 0.051328 -0.023672 0.127344 -0.086641 0.134141 c-0.078476 0.008516 -0.073633 -0.068516 -0.078906 -0.121562 z M77.1332 15.64792 c-0.000586 0.001289 -0.001172 0.002539 -0.001758 0.00375 l-0.001367 -0.001367 l0.001406 0.001406 c-0.030312 0.030508 -0.060664 0.061016 -0.090976 0.091524 l-0.003125 -0.003125 c0.030508 -0.030352 0.060976 -0.060703 0.091445 -0.091055 c0.001406 -0.000391 0.002891 -0.000742 0.004375 -0.001133 z M77.27132 15.53284 c0.035312 0.042734 -0.016484 0.074258 -0.056641 0.091211 c-0.025859 0.010938 -0.05418 0.016367 -0.081562 0.023789 c0.011641 -0.026016 0.020938 -0.053594 0.036523 -0.076953 c0.024453 -0.036562 0.067226 -0.079688 0.10168 -0.038047 z M75.85576 17.41752 c-0.045352 -0.006016 -0.022539 -0.073867 -0.011914 -0.115469 c0.010352 -0.04082 0.021016 -0.081562 0.031562 -0.122383 c0.020195 0.037578 0.048984 0.073711 0.05582 0.113594 c0.009766 0.057344 0.004258 0.134766 -0.075469 0.124258 z M75.87712 17.173 c-0.000547 0.002188 -0.001133 0.004453 -0.001719 0.006641 c-0.000742 -0.001328 -0.001562 -0.002617 -0.002266 -0.003945 c0 0 0.004023 -0.002734 0.003984 -0.002695 z M77.4022 15.32588 c0.003945 -0.011875 0.008203 -0.033945 0.011836 -0.033828 c0.021992 0.000586 0.043828 0.00625 0.065742 0.010195 c-0.003633 0.011875 -0.007305 0.023711 -0.010977 0.035625 c-0.022227 -0.003945 -0.044414 -0.007969 -0.066602 -0.011992 z M78.02248 14.73276 c-0.00082 -0.011484 0.013086 -0.02418 0.020156 -0.036289 c0.012031 0.003828 0.030742 0.004414 0.034453 0.012188 c0.005273 0.010938 0.004688 0.031562 -0.002656 0.04043 c-0.027422 0.033047 -0.048672 0.026367 -0.051953 -0.016328 z M77.7592 14.66156 l-0.004688 0.004531 l-0.086484 0 c0 0 -0.003945 -0.005 -0.003906 -0.005 c0.031719 0.000156 0.063398 0.000313 0.095078 0.000469 z M73.63108 22.74288 c-0.000352 -0.001211 -0.000781 -0.002461 -0.001133 -0.003672 l0 -0.000117 c0.000352 -0.000352 0.000703 -0.000742 0.001055 -0.001094 c0 0.001602 0.000039 0.003281 0.000078 0.004883 z M73.64608 22.80012 c0.000742 0.00707 -0.006992 0.014961 -0.013203 0.022812 c-0.000625 -0.02668 -0.001211 -0.053359 -0.001797 -0.080039 c0.005664 0.018984 0.013008 0.037852 0.015 0.057226 z M73.63308 22.83124 c0.000039 0.000039 -0.004141 -0.003086 -0.004141 -0.003086 c0.001094 -0.001719 0.002578 -0.003477 0.003945 -0.005234 c0.000039 0.002773 0.000156 0.005547 0.000195 0.00832 z"></path></g></svg>